<svg xmlns="http://www.w3.org/2000/svg" viewBox="0 0 34.22 34.22"><g id="Layer_2" data-name="Layer 2"><g id="Layer_1-2" data-name="Layer 1"><path d="M12.32,0V1.37h1.37V0l0,0-.1.07-.16.1-.18.07L13,.3a.76.76,0,0,1-.21,0L12.61.19,12.46.11,12.36,0Z"/><rect x="15.06" width="1.37" height="1.37"/><path d="M19.17,0V1.37h1.36V0l0,0L20.39.1l-.15.1-.19.07-.2,0-.2,0L19.46.19,19.31.11,19.2,0Z"/><path d="M21.9,0V1.37h1.37V0l0,0s-.05,0-.1.07L23,.2l-.19.07-.2,0a.69.69,0,0,1-.2,0L22.2.19,22.05.11,21.94,0Z"/><rect x="12.32" y="1.37" width="1.37" height="1.37"/><rect x="19.17" y="1.37" width="1.37" height="1.37"/><rect x="20.53" y="1.37" width="1.37" height="1.37"/><rect x="21.9" y="1.37" width="1.37" height="1.37"/><rect x="10.95" y="2.74" width="1.37" height="1.37"/><rect x="12.32" y="2.74" width="1.37" height="1.37"/><rect x="13.69" y="2.74" width="1.37" height="1.37"/><rect x="15.06" y="2.74" width="1.37" height="1.37"/><rect x="19.17" y="2.74" width="1.37" height="1.37"/><rect x="20.53" y="2.74" width="1.37" height="1.37"/><rect x="10.95" y="4.11" width="1.37" height="1.37"/><rect x="12.32" y="4.11" width="1.37" height="1.37"/><rect x="15.06" y="4.11" width="1.37" height="1.37"/><rect x="16.43" y="4.11" width="1.37" height="1.37"/><rect x="17.8" y="4.11" width="1.37" height="1.37"/><rect x="19.17" y="4.11" width="1.37" height="1.37"/><rect x="20.53" y="4.11" width="1.37" height="1.37"/><rect x="21.9" y="4.11" width="1.37" height="1.37"/><rect x="10.95" y="5.48" width="1.37" height="1.37"/><rect x="12.32" y="5.48" width="1.37" height="1.37"/><rect x="21.9" y="5.48" width="1.37" height="1.37"/><rect x="10.95" y="6.84" width="1.37" height="1.37"/><rect x="12.32" y="6.84" width="1.37" height="1.37"/><rect x="15.06" y="6.84" width="1.37" height="1.37"/><rect x="19.17" y="6.84" width="1.37" height="1.37"/><rect x="20.53" y="6.84" width="1.37" height="1.37"/><rect x="21.9" y="6.84" width="1.37" height="1.37"/><rect x="10.95" y="8.21" width="1.37" height="1.37"/><rect x="13.69" y="8.21" width="1.37" height="1.37"/><rect x="16.43" y="8.21" width="1.37" height="1.37"/><rect x="19.17" y="8.21" width="1.37" height="1.37"/><path d="M23.27,9.58V8.21H21.9V9.58l0,0,.11-.07a.6.6,0,0,1,.15-.09.69.69,0,0,1,.19-.07.48.48,0,0,1,.2,0l.2,0,.19.08.15.09.11.07,0,0Z"/><rect x="10.95" y="9.58" width="1.37" height="1.37"/><path d="M13.69,9.58H12.32V11h1.37l0,0s0-.05-.07-.1l-.1-.15c0-.06-.05-.12-.07-.19a.75.75,0,0,1,0-.2.69.69,0,0,1,0-.2.84.84,0,0,1,.08-.19,1,1,0,0,1,.08-.15l.08-.11Z"/><rect x="19.17" y="9.58" width="1.37" height="1.37"/><path d="M21.9,9.58H20.53V11H21.9l0,0-.07-.1-.09-.15a1.07,1.07,0,0,1-.07-.19.51.51,0,0,1,0-.2.69.69,0,0,1,0-.2,1.82,1.82,0,0,1,.08-.19,1,1,0,0,1,.09-.15l.07-.11Z"/><path d="M0,11v1.37H1.37V11l0,0-.1.07-.16.09-.18.07-.21,0-.2,0-.19-.07-.15-.09L0,11Z"/><path d="M2.74,12.32H4.11V11H2.74l0,0,.07.1a.89.89,0,0,1,.09.16,1.59,1.59,0,0,1,.08.18.76.76,0,0,1,0,.21.75.75,0,0,1,0,.2,1.08,1.08,0,0,1-.08.19l-.09.15-.07.1Z"/><rect x="4.11" y="10.95" width="1.37" height="1.37"/><rect x="5.48" y="10.95" width="1.37" height="1.37"/><rect x="6.84" y="10.95" width="1.37" height="1.37"/><path d="M9.58,11H8.21v1.37H9.58l0,0-.07-.1A.51.51,0,0,1,9.39,12a.75.75,0,0,1-.07-.18.51.51,0,0,1,0-.2.76.76,0,0,1,0-.21.75.75,0,0,1,.08-.18l.09-.16.07-.1Z"/><path d="M13.69,11v1.37h1.37V11l0,0-.1.07-.16.09-.18.07-.21,0-.2,0L14,11.15l-.15-.09-.1-.08Z"/><path d="M17.8,12.32h1.37V11H17.8l0,0,.07.1c0,.06.07.11.09.16a.75.75,0,0,1,.07.18.52.52,0,0,1,0,.21.75.75,0,0,1,0,.2A1.08,1.08,0,0,1,18,12l-.09.15-.07.1Z"/><rect x="19.17" y="10.95" width="1.37" height="1.37"/><path d="M24.64,12.32H26V11H24.64l0,0,.07.1.09.16a1.71,1.71,0,0,1,.07.18.76.76,0,0,1,0,.21.75.75,0,0,1,0,.2,1.07,1.07,0,0,1-.07.19l-.09.15-.08.1Z"/><rect x="26.01" y="10.95" width="1.37" height="1.37"/><rect x="27.38" y="10.95" width="1.37" height="1.37"/><rect x="28.75" y="10.95" width="1.37" height="1.37"/><path d="M31.49,11H30.12v1.37h1.37l0,0-.07-.1L31.29,12a.89.89,0,0,1-.1-.38.76.76,0,0,1,0-.21.75.75,0,0,1,.07-.18l.09-.16.07-.1Z"/><rect y="12.32" width="1.37" height="1.37"/><path d="M2.74,12.32H1.37v1.37H2.74l0,0-.07-.1-.09-.16a1.71,1.71,0,0,1-.07-.18.75.75,0,0,1,0-.2.76.76,0,0,1,0-.21,1.07,1.07,0,0,1,.07-.19l.09-.15.08-.1Z"/><rect x="4.11" y="12.32" width="1.37" height="1.37"/><rect x="5.48" y="12.32" width="1.37" height="1.37"/><path d="M9.58,12.32v1.37H11V12.32l0,0s-.05,0-.1.08l-.15.09-.19.07-.2,0a.69.69,0,0,1-.2,0l-.19-.08a.53.53,0,0,1-.15-.08l-.11-.08Z"/><path d="M15.06,13.69V12.32H13.69v1.37l0,0,.1-.07.16-.1.18-.07.2,0,.21,0a.75.75,0,0,1,.18.08l.16.08.1.08,0,0Z"/><rect x="16.43" y="12.32" width="1.37" height="1.37"/><path d="M20.53,13.69V12.32H19.17v1.37l0,0,.11-.07.15-.1.19-.07.2,0,.2,0,.19.08.15.08.11.08,0,0Z"/><rect x="21.9" y="12.32" width="1.37" height="1.37"/><rect x="26.01" y="12.32" width="1.37" height="1.37"/><path d="M31.49,12.32v1.37h1.37V12.32l0,0-.11.08-.15.09-.19.07a.69.69,0,0,1-.2,0l-.2,0-.19-.08-.15-.08-.11-.08Z"/><path d="M2.74,13.69v1.37H4.11V13.69l0,0-.1.07-.16.1L3.63,14l-.21,0-.2,0L3,13.88l-.15-.08-.1-.08Z"/><path d="M8.21,15.06H9.58V13.69H8.21l0,0,.07.1.09.16a.89.89,0,0,1,.1.38.76.76,0,0,1,0,.21.75.75,0,0,1-.07.18l-.09.16-.07.1Z"/><rect x="9.58" y="13.69" width="1.37" height="1.37"/><rect x="10.95" y="13.69" width="1.37" height="1.37"/><path d="M13.69,13.69H12.32v1.37h1.37l0,0-.07-.1a1.4,1.4,0,0,1-.1-.16,1.71,1.71,0,0,1-.07-.18.76.76,0,0,1,0-.21.75.75,0,0,1,0-.2A1.08,1.08,0,0,1,13.5,14l.08-.15.08-.1Z"/><rect x="17.8" y="13.69" width="1.37" height="1.37"/><rect x="20.53" y="13.69" width="1.37" height="1.37"/><rect x="23.27" y="13.69" width="1.37" height="1.37"/><path d="M27.38,15.06V13.69H26v1.37l0,0,.1-.08.16-.09.18-.07.21,0,.2,0,.19.08.15.08.1.08,0,0Z"/><rect x="28.75" y="13.69" width="1.37" height="1.37"/><rect x="31.49" y="13.69" width="1.37" height="1.37"/><rect x="32.86" y="13.69" width="1.37" height="1.37"/><rect y="15.06" width="1.37" height="1.37"/><rect x="2.74" y="15.06" width="1.37" height="1.37"/><rect x="6.84" y="15.06" width="1.37" height="1.37"/><path d="M15.06,15.06v1.37h1.37V15.06l0,0-.1.07-.16.09-.18.08-.21,0-.2,0-.19-.08-.15-.09-.1-.07Z"/><rect x="19.17" y="15.06" width="1.37" height="1.37"/><rect x="32.86" y="15.06" width="1.37" height="1.37"/><rect x="2.74" y="16.43" width="1.37" height="1.37"/><rect x="5.48" y="16.43" width="1.37" height="1.37"/><rect x="8.21" y="16.43" width="1.37" height="1.37"/><path d="M11,16.43V17.8h1.37V16.43l0,0-.1.07a.51.51,0,0,1-.16.09l-.18.08-.2,0a.76.76,0,0,1-.21,0,.75.75,0,0,1-.18-.08l-.16-.09-.1-.07Z"/><path d="M13.69,17.8h1.37V16.43H13.69l0,0s0,.05.07.1l.1.15c0,.06,0,.12.07.19a.75.75,0,0,1,0,.2.69.69,0,0,1,0,.2.84.84,0,0,1-.08.19l-.08.15-.08.11Z"/><rect x="15.06" y="16.43" width="1.37" height="1.37"/><rect x="16.43" y="16.43" width="1.37" height="1.37"/><rect x="17.8" y="16.43" width="1.37" height="1.37"/><path d="M20.53,17.8H21.9V16.43H20.53l0,0,.07.1.09.15a1.07,1.07,0,0,1,.07.19.75.75,0,0,1,0,.2.69.69,0,0,1,0,.2.84.84,0,0,1-.07.19,1,1,0,0,1-.09.15l-.07.11Z"/><rect x="21.9" y="16.43" width="1.37" height="1.37"/><rect x="23.27" y="16.43" width="1.37" height="1.37"/><path d="M26,16.43H24.64V17.8H26l0,0-.07-.1a.89.89,0,0,1-.09-.16.75.75,0,0,1-.08-.18.82.82,0,0,1,0-.21.75.75,0,0,1,0-.2,1.08,1.08,0,0,1,.08-.19l.09-.15a.43.43,0,0,1,.07-.1Z"/><rect x="27.38" y="16.43" width="1.37" height="1.37"/><path d="M30.12,17.8h1.37V16.43H30.12l0,0,.07.1a.6.6,0,0,1,.09.15c0,.06.05.12.08.19a.75.75,0,0,1,0,.2.69.69,0,0,1,0,.2.84.84,0,0,1-.08.19,1,1,0,0,1-.09.15l-.07.11Z"/><rect x="31.49" y="16.43" width="1.37" height="1.37"/><rect x="32.86" y="16.43" width="1.37" height="1.37"/><rect y="17.8" width="1.37" height="1.37"/><rect x="1.37" y="17.8" width="1.37" height="1.37"/><rect x="2.74" y="17.8" width="1.37" height="1.37"/><path d="M6.84,17.8v1.37H8.21V17.8l0,0-.11.07a1.19,1.19,0,0,1-.15.09.84.84,0,0,1-.19.07.51.51,0,0,1-.2,0l-.2,0L7.14,18,7,17.9l-.11-.07Z"/><rect x="9.58" y="17.8" width="1.37" height="1.37"/><rect x="10.95" y="17.8" width="1.37" height="1.37"/><rect x="17.8" y="17.8" width="1.37" height="1.37"/><path d="M23.27,19.17V17.8H21.9v1.37l0,0,.11-.07L22.2,19a1,1,0,0,1,.39-.1l.2,0L23,19l.15.09.11.07s0,0,0,0Z"/><path d="M26,17.8v1.37h1.37V17.8l0,0-.1.07-.16.09a.75.75,0,0,1-.18.07.51.51,0,0,1-.2,0,.76.76,0,0,1-.21,0L26.3,18l-.15-.09-.1-.07Z"/><path d="M28.75,17.8v1.37h1.37V17.8l0,0-.1.07-.16.09a.75.75,0,0,1-.18.07.52.52,0,0,1-.21,0l-.2,0L29,18l-.15-.09-.1-.07Z"/><rect x="31.49" y="17.8" width="1.37" height="1.37"/><rect y="19.17" width="1.37" height="1.37"/><path d="M4.11,19.17v1.36H5.48V19.17l0,0-.11.07-.15.09a.69.69,0,0,1-.19.07.71.71,0,0,1-.2,0,.79.79,0,0,1-.2,0l-.19-.07-.15-.09-.11-.07Z"/><rect x="6.84" y="19.17" width="1.37" height="1.37"/><rect x="8.21" y="19.17" width="1.37" height="1.37"/><rect x="9.58" y="19.17" width="1.37" height="1.37"/><rect x="12.32" y="19.17" width="1.37" height="1.37"/><rect x="15.06" y="19.17" width="1.37" height="1.37"/><rect x="16.43" y="19.17" width="1.37" height="1.37"/><rect x="17.8" y="19.17" width="1.37" height="1.37"/><rect x="19.17" y="19.17" width="1.37" height="1.37"/><path d="M21.9,19.17H20.53v1.36H21.9l0,0-.07-.11-.09-.15a.84.84,0,0,1-.07-.19.51.51,0,0,1,0-.2.75.75,0,0,1,0-.2c0-.07.05-.13.08-.19a1,1,0,0,1,.09-.15l.07-.11Z"/><rect x="24.64" y="19.17" width="1.37" height="1.37"/><rect x="26.01" y="19.17" width="1.37" height="1.37"/><rect x="27.38" y="19.17" width="1.37" height="1.37"/><rect x="28.75" y="19.17" width="1.37" height="1.37"/><rect x="31.49" y="19.17" width="1.37" height="1.37"/><rect x="32.86" y="19.17" width="1.37" height="1.37"/><rect y="20.53" width="1.37" height="1.37"/><rect x="4.11" y="20.53" width="1.37" height="1.37"/><path d="M6.84,20.53H5.48V21.9H6.84l0,0-.07-.11-.09-.15a.84.84,0,0,1-.07-.19.68.68,0,0,1,0-.4.84.84,0,0,1,.07-.19,1,1,0,0,1,.09-.15l.07-.11Z"/><rect x="10.95" y="20.53" width="1.37" height="1.37"/><rect x="13.69" y="20.53" width="1.37" height="1.37"/><rect x="15.06" y="20.53" width="1.37" height="1.37"/><rect x="21.9" y="20.53" width="1.37" height="1.37"/><rect x="23.27" y="20.53" width="1.37" height="1.37"/><rect x="24.64" y="20.53" width="1.37" height="1.37"/><rect x="26.01" y="20.53" width="1.37" height="1.37"/><rect x="27.38" y="20.53" width="1.37" height="1.37"/><path d="M34.22,21.9V20.53H32.86V21.9l0,0L33,21.8l.15-.09a.84.84,0,0,1,.19-.07.51.51,0,0,1,.2,0l.2,0,.19.08.15.09.11.07,0,0Z"/><path d="M1.37,23.27V21.9H0v1.37l0,0,.1-.07a.65.65,0,0,1,.16-.09A.75.75,0,0,1,.48,23a.51.51,0,0,1,.2,0,.76.76,0,0,1,.21,0,.75.75,0,0,1,.18.08l.16.09.1.07,0,0Z"/><path d="M8.21,23.27H9.58V21.9H8.21l0,0,.07.11.09.15a1,1,0,0,1,.1.39.75.75,0,0,1,0,.2,1.07,1.07,0,0,1-.07.19l-.09.15-.07.11Z"/><path d="M11,21.9H9.58v1.37H11l0,0-.07-.1a.6.6,0,0,1-.09-.15c0-.06,0-.12-.08-.19a.75.75,0,0,1,0-.2.69.69,0,0,1,0-.2.84.84,0,0,1,.08-.19,1,1,0,0,1,.09-.15l.07-.11Z"/><rect x="13.69" y="21.9" width="1.37" height="1.37"/><rect x="15.06" y="21.9" width="1.37" height="1.37"/><path d="M17.8,23.27h1.37V21.9H17.8l0,0a1.15,1.15,0,0,1,.07.11,1.19,1.19,0,0,1,.09.15.69.69,0,0,1,.07.19.48.48,0,0,1,0,.2.75.75,0,0,1,0,.2A1.08,1.08,0,0,1,18,23l-.09.15-.07.11Z"/><path d="M20.53,21.9H19.17v1.37h1.36l0,0-.07-.1L20.34,23a1.07,1.07,0,0,1-.07-.19.75.75,0,0,1,0-.2.69.69,0,0,1,0-.2.84.84,0,0,1,.07-.19,1,1,0,0,1,.09-.15l.07-.11Z"/><rect x="21.9" y="21.9" width="1.37" height="1.37"/><rect x="23.27" y="21.9" width="1.37" height="1.37"/><rect x="24.64" y="21.9" width="1.37" height="1.37"/><rect x="26.01" y="21.9" width="1.37" height="1.37"/><rect x="27.38" y="21.9" width="1.37" height="1.37"/><rect x="30.12" y="21.9" width="1.37" height="1.37"/><path d="M11,24.64h1.37V23.27H11l0,0,.07.1.09.16a1.71,1.71,0,0,1,.07.18.82.82,0,0,1,0,.21.75.75,0,0,1,0,.2,1.07,1.07,0,0,1-.07.19l-.09.15-.08.1Z"/><rect x="12.32" y="23.27" width="1.37" height="1.37"/><rect x="13.69" y="23.27" width="1.37" height="1.37"/><rect x="16.43" y="23.27" width="1.37" height="1.37"/><path d="M20.53,24.64H21.9V23.27H20.53l0,0,.07.1.09.16a.75.75,0,0,1,.07.18.82.82,0,0,1,0,.21.75.75,0,0,1,0,.2,1.07,1.07,0,0,1-.07.19l-.09.15-.07.1Z"/><rect x="21.9" y="23.27" width="1.37" height="1.37"/><rect x="27.38" y="23.27" width="1.37" height="1.37"/><path d="M30.12,23.27H28.75v1.37h1.37l0,0L30,24.5l-.09-.16a1.71,1.71,0,0,1-.07-.18.75.75,0,0,1,0-.2.69.69,0,0,1,0-.2.84.84,0,0,1,.07-.19,1,1,0,0,1,.09-.15l.08-.11Z"/><path d="M19.17,24.64V26h1.36V24.64l0,0-.11.07-.15.09-.19.07-.2,0-.2,0-.19-.07-.15-.09-.11-.08Z"/><rect x="21.9" y="24.64" width="1.37" height="1.37"/><rect x="24.64" y="24.64" width="1.37" height="1.37"/><rect x="27.38" y="24.64" width="1.37" height="1.37"/><path d="M30.12,26h1.37V24.64H30.12l0,0,.07.1a.89.89,0,0,1,.09.16,1.59,1.59,0,0,1,.08.18.76.76,0,0,1,0,.21.75.75,0,0,1,0,.2,1.08,1.08,0,0,1-.08.19l-.09.15-.07.1Z"/><rect x="31.49" y="24.64" width="1.37" height="1.37"/><path d="M34.22,24.64H32.86V26h1.36s0,0,0,0l-.07-.1L34,25.71a.89.89,0,0,1-.1-.38.76.76,0,0,1,0-.21.75.75,0,0,1,.07-.18l.09-.16.07-.1Z"/><path d="M11,26v1.37h1.37V26l0,0s0,0-.1.07l-.16.1-.18.07-.2,0a.76.76,0,0,1-.21,0,.75.75,0,0,1-.18-.08.8.8,0,0,1-.16-.08L11,26Z"/><path d="M16.43,26v1.37H17.8V26l0,0-.1.07-.16.1-.18.07-.21,0-.2,0-.19-.08-.15-.08-.1-.08Z"/><rect x="19.17" y="26.01" width="1.37" height="1.37"/><rect x="21.9" y="26.01" width="1.37" height="1.37"/><rect x="27.38" y="26.01" width="1.37" height="1.37"/><path d="M30.12,26H28.75v1.37h1.37l0,0-.07-.1-.09-.16a1.71,1.71,0,0,1-.07-.18.75.75,0,0,1,0-.2.76.76,0,0,1,0-.21,1.07,1.07,0,0,1,.07-.19l.09-.15.08-.1Z"/><rect x="31.49" y="26.01" width="1.37" height="1.37"/><rect x="10.95" y="27.38" width="1.37" height="1.37"/><rect x="12.32" y="27.38" width="1.37" height="1.37"/><rect x="13.69" y="27.38" width="1.37" height="1.37"/><rect x="16.43" y="27.38" width="1.37" height="1.37"/><rect x="17.8" y="27.38" width="1.37" height="1.37"/><rect x="19.17" y="27.38" width="1.37" height="1.37"/><rect x="20.53" y="27.38" width="1.37" height="1.37"/><rect x="21.9" y="27.38" width="1.37" height="1.37"/><rect x="23.27" y="27.38" width="1.37" height="1.37"/><rect x="24.64" y="27.38" width="1.37" height="1.37"/><rect x="26.01" y="27.38" width="1.37" height="1.37"/><rect x="27.38" y="27.38" width="1.37" height="1.37"/><rect x="30.12" y="27.38" width="1.37" height="1.37"/><rect x="31.49" y="27.38" width="1.37" height="1.37"/><rect x="32.86" y="27.38" width="1.37" height="1.37"/><rect x="10.95" y="28.75" width="1.37" height="1.37"/><rect x="12.32" y="28.75" width="1.37" height="1.37"/><rect x="13.69" y="28.75" width="1.37" height="1.37"/><rect x="19.17" y="28.75" width="1.37" height="1.37"/><rect x="23.27" y="28.75" width="1.37" height="1.37"/><rect x="24.64" y="28.75" width="1.37" height="1.37"/><rect x="27.38" y="28.75" width="1.37" height="1.37"/><rect x="28.75" y="28.75" width="1.37" height="1.37"/><rect x="30.12" y="28.75" width="1.37" height="1.37"/><rect x="31.49" y="28.75" width="1.37" height="1.37"/><rect x="32.86" y="28.75" width="1.37" height="1.37"/><path d="M12.32,31.49V30.12H11v1.37l0,0,.1-.07.16-.09a.75.75,0,0,1,.18-.07.76.76,0,0,1,.21,0l.2,0,.19.07.15.09.1.07s0,0,0,0Z"/><rect x="15.06" y="30.12" width="1.37" height="1.37"/><path d="M17.8,30.12H16.43v1.37H17.8l0,0-.07-.11-.09-.15a.75.75,0,0,1-.07-.18.82.82,0,0,1,0-.21.75.75,0,0,1,0-.2,1.07,1.07,0,0,1,.07-.19l.09-.15.07-.1Z"/><rect x="19.17" y="30.12" width="1.37" height="1.37"/><rect x="28.75" y="30.12" width="1.37" height="1.37"/><rect x="30.12" y="30.12" width="1.37" height="1.37"/><rect x="32.86" y="30.12" width="1.37" height="1.37"/><rect x="12.32" y="31.49" width="1.37" height="1.37"/><rect x="13.69" y="31.49" width="1.37" height="1.37"/><rect x="15.06" y="31.49" width="1.37" height="1.37"/><rect x="19.17" y="31.49" width="1.37" height="1.37"/><rect x="20.53" y="31.49" width="1.37" height="1.37"/><path d="M23.27,31.49H21.9v1.37h1.37l0,0a1.15,1.15,0,0,1-.07-.11.6.6,0,0,1-.09-.15.69.69,0,0,1-.07-.19.48.48,0,0,1,0-.2.75.75,0,0,1,0-.2,1.08,1.08,0,0,1,.08-.19l.09-.15.07-.11Z"/><rect x="26.01" y="31.49" width="1.37" height="1.37"/><rect x="27.38" y="31.49" width="1.37" height="1.37"/><rect x="28.75" y="31.49" width="1.37" height="1.37"/><rect x="32.86" y="31.49" width="1.37" height="1.37"/><path d="M11,34.22h1.37V32.86H11l0,0a.58.58,0,0,0,.07.11l.09.15a2,2,0,0,1,.07.19.68.68,0,0,1,0,.4.84.84,0,0,1-.07.19l-.09.15-.08.11Z"/><rect x="12.32" y="32.86" width="1.37" height="1.37"/><rect x="13.69" y="32.86" width="1.37" height="1.37"/><rect x="15.06" y="32.86" width="1.37" height="1.37"/><path d="M17.8,32.86H16.43v1.36H17.8l0,0a.58.58,0,0,0-.07-.11l-.09-.15a.84.84,0,0,1-.07-.19.68.68,0,0,1,0-.4.84.84,0,0,1,.07-.19,1,1,0,0,1,.09-.15.9.9,0,0,0,.07-.11Z"/><path d="M24.64,34.22H26V32.86H24.64l0,0a.58.58,0,0,0,.07.11l.09.15a2,2,0,0,1,.07.19.68.68,0,0,1,0,.4.84.84,0,0,1-.07.19,1,1,0,0,1-.09.15l-.08.11Z"/><rect x="26.01" y="32.86" width="1.37" height="1.37"/><rect x="27.38" y="32.86" width="1.37" height="1.37"/><rect x="28.75" y="32.86" width="1.37" height="1.37"/><rect x="30.12" y="32.86" width="1.37" height="1.37"/><rect x="31.49" y="32.86" width="1.37" height="1.37"/><rect x="32.86" y="32.86" width="1.37" height="1.37"/><path d="M8.15,0H0V9.58H9.58V0Zm0,8.15H1.44V1.44H8.15Z"/><path d="M32.79,0H24.64V9.58h9.58V0Zm0,8.15H26.08V1.44h6.71Z"/><path d="M8.15,24.64H0v9.58H9.58V24.64Zm0,8.15H1.44V26.08H8.15Z"/><path d="M2.92,2.74,2.74,3.93l1.19.18.18-1.19Z"/><path d="M4.11,3l1.13-.23.24,1.13-1.14.24Z"/><path d="M5.48,2.87l1.23-.13L6.84,4l-1.36.14Z"/><path d="M2.81,4.45l.95-.27,1.65,1-2.33.28Z"/><path d="M3.63,3.6l0,2.31L5.86,6,6,3.67Z"/><path d="M5.68,4.18,5.54,5.27l1.1.14.14-1.1Z"/><path d="M2.74,5.68l1.16-.2.21,1.16-1.17.2Z"/><path d="M4.11,5.64l1.2-.16.17,1.2-1.21.16Z"/><path d="M5.78,5.48l-.3,1.06,1.06.3.3-1.06Z"/><path d="M31.31,2.74l.18,1.19-1.19.18-.18-1.19Z"/><path d="M30.12,3,29,2.74l-.23,1.13,1.13.24Z"/><path d="M28.75,2.87l-1.23-.13L27.38,4l1.37.14Z"/><path d="M31.42,4.45l-1-.27-1.64,1,2.32.28Z"/><path d="M30.6,3.6l0,2.31L28.37,6l-.11-2.33Z"/><path d="M28.54,4.18l.14,1.09-1.09.14-.14-1.1Z"/><path d="M31.49,5.68l-1.17-.2-.2,1.16,1.16.2Z"/><path d="M30.12,5.64l-1.21-.16-.16,1.2,1.2.16Z"/><path d="M28.45,5.48l.3,1.06-1.07.3-.3-1.06Z"/><path d="M2.92,31.49,2.74,30.3l1.19-.18.18,1.19Z"/><path d="M4.11,31.25l1.13.24.24-1.14-1.14-.23Z"/><path d="M5.48,31.35l1.23.14.13-1.24-1.36-.13Z"/><path d="M2.81,29.78l.95.27,1.65-1-2.33-.27Z"/><path d="M3.63,30.62l0-2.31,2.27-.08L6,30.56Z"/><path d="M5.68,30.05,5.54,29l1.1-.13.14,1.09Z"/><path d="M2.74,28.54l1.16.21.21-1.16-1.17-.21Z"/><path d="M4.11,28.58l1.2.17.17-1.21-1.21-.16Z"/><path d="M5.78,28.75l-.3-1.07,1.06-.3.3,1.07Z"/></g></g></svg>