<?xml version="1.0" encoding="utf-8"?>
<!-- Generator: Adobe Illustrator 25.2.1, SVG Export Plug-In . SVG Version: 6.00 Build 0)  -->
<svg version="1.1" id="Layer_1" xmlns="http://www.w3.org/2000/svg" xmlns:xlink="http://www.w3.org/1999/xlink" x="0px" y="0px"
	 viewBox="0 0 187 150.7" enable-background="new 0 0 187 150.7" xml:space="preserve">
<g>
	<path d="M7.4,1.2c3.1,0.1,4.6,2.4,6.5,4.2C42.9,34.4,72,63.4,101,92.3c14.6,14.5,29.2,29.1,43.8,43.6c1.2,1.2,2.4,2.3,3.5,3.6
		c2.5,2.7,2.9,5.7,0.1,8.4c-2.6,2.5-5.6,2-8-0.4c-6.1-5.9-12.1-11.8-18-17.9c-2.1-2.2-3.9-3.1-6.9-1.8c-3.9,1.6-8.1,1.6-12.3,1.6
		c-18,0-35.9,0.1-53.9,0c-23.1-0.1-37.5-14.6-37.6-37.7c0-10.9,0.1-21.9,0-32.8c-0.2-9.9,2.4-18.7,9.2-26c2-2.1,1.3-3.2-0.4-4.8
		C14.8,22.4,9.2,16.8,3.6,11.1C1.7,9.2,0.8,6.9,2.1,4.3C3.2,2.1,5,1.2,7.4,1.2z M109.9,117.1C84,91.3,58.4,65.9,32.9,40.4
		c-1.6-1.6-2.7-1.3-4,0.3c-3.9,4.6-5.9,9.9-5.9,16c0,12.1,0,24.2,0,36.3c0.1,15.2,10.1,25.1,25.5,25.1c18.3,0,36.6,0,54.9,0
		C105.3,118.1,107.4,118.5,109.9,117.1z"/>
	<path d="M185.4,73.7c0,10.3-0.1,20.5,0,30.8c0.1,6.7-2.1,12.1-8.6,14.8c-5.7,2.4-10.4,0.1-16.5-4.8c-11.2-9-15.3-19.9-13.7-34.1
		c1.1-10,0.3-20.2,0.2-30.3c0-2.5,0.7-4.4,2.4-6.2c4.2-4.2,8.3-8.6,12.4-12.9c4.2-4.4,9.1-5.9,14.9-3.8c6,2.2,8.8,6.9,8.8,13.1
		C185.5,51.5,185.4,62.6,185.4,73.7z M174,73.3c0-10.6,0-21.2,0-31.8c0-1.5,0.2-3.2-1.6-3.7c-1.5-0.5-2.4,0.9-3.3,1.8
		c-2.4,2.5-4.7,5.2-7.3,7.4c-3,2.6-4.1,5.6-3.9,9.6c0.3,8.1,0.9,16.3-0.1,24.3c-1.3,10.8,2.1,18.9,10.6,25.3c1.4,1,2.1,3.4,4.4,2.4
		c1.9-0.9,1.3-2.9,1.3-4.5C174,93.9,174,83.6,174,73.3z"/>
	<path d="M135.1,112.2c-2-2.4-3.1-4.3-4.7-5.7c-2.5-2.1-2.9-4.2-2.1-7.4c1.4-5.3,0.6-10.9,0.6-16.3c0.1-8.6,0.1-17.2,0-25.9
		c-0.1-14.2-10.5-24.4-24.6-24.5c-13.3-0.1-26.6-0.3-39.9,0.1c-6,0.2-10.6-1.2-14.2-6C49,25,47,24.2,45.4,23c2.2-2.5,4-1.8,5.5-1.8
		c17.5-0.1,34.9-0.1,52.4,0c22.1,0.1,36.8,14.8,36.9,36.8c0.1,11.8,0,23.5,0,35.3C140.2,99.6,139.1,105.5,135.1,112.2z"/>
</g>
</svg>
