<?xml version="1.0" encoding="utf-8"?>
<!-- Generator: Adobe Illustrator 25.2.1, SVG Export Plug-In . SVG Version: 6.00 Build 0)  -->
<svg version="1.1" id="Layer_1" xmlns="http://www.w3.org/2000/svg" xmlns:xlink="http://www.w3.org/1999/xlink" x="0px" y="0px"
	 viewBox="0 0 187 150.7" enable-background="new 0 0 187 150.7" xml:space="preserve">
<g>
	<path d="M28.5,74.9c0-5.8,0-11.6,0-17.4c0-5.9,1.2-11.7,4.7-16.5c2.3-3.1,1.3-4.6-1-6.9C24.5,26.8,17,19.2,9.5,11.7
		C6.6,8.8,6.3,5.4,9.3,2.4c3-2.9,6.3-2.5,9.3,0.2c0.4,0.3,0.7,0.7,1.1,1C64.6,48.4,109.5,93.2,154.5,138c3.9,3.9,4.4,7.5,1.5,10.4
		c-2.7,2.8-6.8,2.4-10.5-1.2c-7.1-7-14.2-14-21.1-21.1c-1.8-1.8-3.5-2.3-6.1-2.2c-20.5,0.2-40.9,0.5-61.4,0
		c-16.1-0.4-28.1-13.5-28.4-29.6C28.3,87.9,28.5,81.4,28.5,74.9z"/>
	<path d="M59.1,27.6c1.9-1.3,3.6-0.8,5.2-0.8c16.6-0.1,33.3-0.1,49.9,0c18.9,0,31.6,12.7,31.7,31.5c0.1,11.6,0,23.2,0,34.8
		c0,4.3-0.9,8.5-2.4,12.6c-1.3,3.6-2.4,3.9-5.2,1.1C123,91.4,107.5,76.1,92.1,60.7C82.2,50.9,72.4,41,62.5,31.1
		C61.4,30,60.3,28.8,59.1,27.6z"/>
	<path d="M179.8,73.9c0,10.3,0,20.6,0,30.8c0,4.3-0.8,7.9-5.4,9.6c-4.4,1.6-6.9-1.2-10-3.6c-9.8-7.8-13.9-17.4-12.3-30.2
		c1.1-9.1,0.3-18.5,0.2-27.8c0-2.5,0.6-4.4,2.4-6.2c3.7-3.6,7.2-7.3,10.7-11.1c2.6-2.9,5.7-4,9.4-2.7c3.7,1.4,5.1,4.6,5.1,8.3
		C179.8,52,179.8,63,179.8,73.9z"/>
</g>
</svg>
