<?xml version="1.0" encoding="utf-8"?>
<!-- Generator: Adobe Illustrator 25.2.1, SVG Export Plug-In . SVG Version: 6.00 Build 0)  -->
<svg version="1.1" id="Layer_1" xmlns="http://www.w3.org/2000/svg" xmlns:xlink="http://www.w3.org/1999/xlink" x="0px" y="0px"
	 viewBox="0 0 187 150.7" enable-background="new 0 0 187 150.7" xml:space="preserve">
<g>
	<path fill="#FFE523" d="M74.6,124c-8.6-0.5-19.3,1-29.9-0.7c-15.4-2.5-26.4-15.1-26.8-30.7c-0.3-11.4-0.2-22.9,0-34.3
		C18.3,40.8,32.3,27,50,26.7c17.8-0.2,35.6-0.2,53.4,0c16.5,0.2,29.8,11.9,31.5,28.2c1.4,13.7,1.4,27.5,0,41.2
		c-1.7,16.1-14.9,27.5-31.2,27.9C94.6,124.1,85.6,124,74.6,124z"/>
	<path fill="#FFE523" d="M169.2,73.8c0,10.4,0,20.9,0,31.3c0,4.1-1,7.5-5.3,9.1c-4.1,1.5-6.7-0.9-9.7-3.3c-10.3-8-14.3-18-12.7-31
		c1.1-9,0.3-18.2,0.2-27.3c0-2.5,0.5-4.4,2.4-6.2c3.8-3.7,7.5-7.6,11.1-11.5c2.6-2.7,5.6-3.6,9-2.4c3.6,1.3,5,4.2,5,7.8
		C169.2,51.6,169.2,62.7,169.2,73.8C169.2,73.8,169.2,73.8,169.2,73.8z"/>
</g>
</svg>
