<?xml version="1.0" encoding="utf-8"?>
<!-- Generator: Adobe Illustrator 25.2.1, SVG Export Plug-In . SVG Version: 6.00 Build 0)  -->
<svg version="1.1" id="Layer_1" xmlns="http://www.w3.org/2000/svg" xmlns:xlink="http://www.w3.org/1999/xlink" x="0px" y="0px"
	 viewBox="0 0 187 150.7" enable-background="new 0 0 187 150.7" xml:space="preserve">
<g>
	<path fill="#FFE523" d="M70.9,21.2c9.3,0,18.6-0.1,28,0c21.2,0.2,36.1,14.9,36.2,36c0.1,11.9,0.1,23.9,0,35.8
		c-0.1,21.3-14.6,36-35.9,36.3c-18.8,0.2-37.6,0.3-56.4,0c-21.3-0.3-35.9-15.1-36-36.3c-0.1-11.9-0.1-23.9,0-35.8
		C7,36.1,21.7,21.5,42.9,21.2C52.3,21.1,61.6,21.2,70.9,21.2z M70.6,118.1c10,0,20,0.1,29.9,0c12.7-0.2,23.1-10.6,23.3-23.2
		c0.2-13.1,0.2-26.2,0-39.3c-0.2-12.6-10.8-23-23.4-23.1c-19.6-0.2-39.2-0.2-58.9,0C28.6,32.6,18.2,43,18,56
		c-0.2,12.8-0.2,25.5,0,38.3c0.2,13.6,10.5,23.7,24.2,23.9C51.6,118.2,61.1,118.1,70.6,118.1z"/>
	<path fill="#FFE523" d="M180.3,73.4c0,10.6,0,21.2,0,31.8c0,7.4-2.9,12.2-8.7,14.2c-6.2,2.1-10.8-0.3-15.8-4.3
		c-11.2-9.2-16.2-20.1-14.3-34.9c1.3-9.8,0.3-19.8,0.2-29.8c0-2.7,0.7-4.7,2.6-6.6c4.4-4.3,8.5-8.9,12.8-13.2
		c4.1-4.2,9.1-5.4,14.6-3.2c5.5,2.2,8.4,6.4,8.5,12.3C180.3,50.9,180.3,62.2,180.3,73.4C180.3,73.4,180.3,73.4,180.3,73.4z
		 M169,73.5c0-5.3,0-10.6,0-15.9c0-5.3,0-10.6,0-15.9c0-1.5,0.3-3.2-1.5-3.8c-1.6-0.6-2.4,0.8-3.3,1.7c-2.6,2.6-5,5.4-7.6,7.8
		c-2.6,2.4-3.8,5-3.6,8.7c0.3,8.3,0.9,16.6-0.1,24.8c-1.3,11,2.3,19.2,10.8,25.7c0.1,0.1,0.2,0.2,0.4,0.3c1.1,0.9,1.9,2.6,3.7,1.8
		c1.7-0.8,1.3-2.5,1.3-4C169,94.3,169,83.9,169,73.5z"/>
</g>
</svg>
