<?xml version="1.0" encoding="utf-8"?>
<!-- Generator: Adobe Illustrator 25.2.1, SVG Export Plug-In . SVG Version: 6.00 Build 0)  -->
<svg version="1.1" id="Layer_1" xmlns="http://www.w3.org/2000/svg" xmlns:xlink="http://www.w3.org/1999/xlink" x="0px" y="0px"
	 viewBox="0 0 53.1 51.2" style="enable-background:new 0 0 53.1 51.2;" xml:space="preserve">
<g id="Layer_2_2_">
	<g id="Layer_1-2_1_">
		<path d="M16.5,49.7L6.1,41.6c3.3-3.7,6.8-7.3,10.3-10.7c1.4-1.4,2.3-2.2,2.7-2.6c-1.1-0.2-4.4-0.9-9.8-2.3c-3.9-1-6.5-1.7-7.7-2.1
			l4.1-12.1c5.6,2.2,11,4.9,16.1,8.1c-1-6.1-1.5-12.2-1.7-18.3h12.2c0,3.3-0.6,9.5-1.9,18.4c0.9-0.4,2.9-1.3,5.9-2.7
			c4.1-1.9,7.9-3.5,11.4-4.8l3.7,12.4c-5.1,1.1-11,2.3-17.7,3.4l8.3,9.3c1.6,1.9,3,3.4,3.9,4.6l-10.6,6.9L26,33.8
			C23.4,38.8,20.2,44.1,16.5,49.7z"/>
	</g>
</g>
</svg>
