<?xml version="1.0" encoding="utf-8"?>
<!-- Generator: Adobe Illustrator 25.2.1, SVG Export Plug-In . SVG Version: 6.00 Build 0)  -->
<svg version="1.1" id="Layer_1" xmlns="http://www.w3.org/2000/svg" xmlns:xlink="http://www.w3.org/1999/xlink" x="0px" y="0px"
	 viewBox="0 0 144.2 141" enable-background="new 0 0 144.2 141" xml:space="preserve">
<circle fill="#FFE523" cx="72.1" cy="70.5" r="66.3"/>
<g id="MDEGA1.tif">
	<g>
		<path d="M71.7,0.8c36.7-1.9,70.5,30.5,70.4,68.3c-0.1,39.3-30.4,71-69.2,71.3c-38.8,0.3-70-30.7-70.8-69.1
			C1.4,33.2,33.9-0.6,71.7,0.8z M133,70.5c0.7-30.9-23.6-61.4-61.2-61.5C34.3,9,11,40.8,11.2,69.9c0.2,34.2,26.4,61.1,60.6,61.2
			C105.8,131.3,132.9,104.5,133,70.5z"/>
		<path d="M71.9,82.8c11.1-0.1,21.3,2.5,30,9.7c2.7,2.2,5.5,5,2.5,8.5c-2.9,3.3-5.5,0.6-8.1-1.4c-13.5-10.7-34.6-10.7-48.1,0.1
			c-2.6,2-5.4,4.6-8.1,1.3c-2.9-3.4,0-6.1,2.6-8.4C49.7,86.3,60.1,82.9,71.9,82.8z"/>
		<path d="M49,62c-5-2-8.6-3.5-12.2-5C34,55.8,31.8,54,33,50.7c1.2-3.3,4-3.3,6.8-2.1c7.4,3,14.8,6,22.2,9c1.9,0.8,3.4,1.9,3.5,4
			c0.1,2.4-1.3,4-3.4,4.8c-7.6,3.1-15.2,6.2-22.9,9c-2.6,1-5.2,0.7-6.2-2.4c-1-3,0.8-4.8,3.4-5.9C40.1,65.6,43.8,64.1,49,62z"/>
		<path d="M96.6,61.5c3.7,3.1,7.5,3.8,10.8,5.3c2.7,1.3,5,2.8,3.9,6.1c-1.2,3.4-4.1,3.3-6.8,2.3c-7.4-2.8-14.8-5.8-22.2-8.8
			c-2-0.8-3.7-2.3-3.6-4.7c0.1-2.4,1.9-3.7,3.9-4.5c7.4-3,14.8-5.9,22.2-8.8c2.6-1,5.1-0.9,6.4,2c1.2,2.9-0.2,4.8-2.9,6
			C104.7,58.1,101,59.6,96.6,61.5z"/>
	</g>
</g>
</svg>
