<?xml version="1.0" encoding="utf-8"?>
<!-- Generator: Adobe Illustrator 25.2.1, SVG Export Plug-In . SVG Version: 6.00 Build 0)  -->
<svg version="1.1" id="Layer_1" xmlns="http://www.w3.org/2000/svg" xmlns:xlink="http://www.w3.org/1999/xlink" x="0px" y="0px"
	 viewBox="0 0 144.2 141" enable-background="new 0 0 144.2 141" xml:space="preserve">
<g>
	<path fill="#FFE523" d="M71.8,2.2c14.6,0.2,29.1,2.8,41.8,11.3c20.1,13.5,29,33.1,28.5,56.8c-0.6,26.2-10.9,47.5-34.5,60.8
		c-12,6.8-25.2,8.4-38.7,7.5c-21-1.4-39.7-8.2-53.8-24.7C7.5,105,3.8,94.4,2.7,82.9c-1.6-17,0-33.6,8.1-49c3.4-6.3,9.1-10.3,14-15.3
		c8-8.1,17.7-11.7,28.1-14.5C58.9,2.4,65.1,2.3,71.8,2.2z"/>
</g>
<g id="KsrowP_2_">
	<g>
		<path d="M71.8,2.3c14.6,0.2,29.1,2.8,41.8,11.3c20.1,13.5,29,33.1,28.5,56.8c-0.6,26.2-10.9,47.5-34.5,60.8
			c-12,6.8-25.2,8.4-38.7,7.5c-21-1.4-39.7-8.2-53.8-24.7C7.5,105.1,3.8,94.5,2.7,83c-1.6-17,0-33.6,8.1-49
			c3.4-6.3,9.1-10.3,14-15.3c8-8.1,17.7-11.7,28.1-14.5C58.9,2.5,65.1,2.4,71.8,2.3z M70.3,8.4c-8.6-0.2-16.9,1.3-24.8,4.7
			c-1.2,0.5-3.8,0.6-2.9,3.1c1.7,4.8-2.4,5.4-4.7,5.3c-8-0.1-12,5.2-15.5,10.8c-6.2,9.9-9.2,21.1-10,32.6
			c-2,26.1,5.5,47.7,30.3,60.6c21.6,11.3,49.9,9.5,67.1-4.5c25.3-20.6,30.1-63.7,10.4-90.2C107.5,13.9,90.1,8.8,70.3,8.4z"/>
		<path d="M91.9,72.2c-3.2,0-6.1,2.5-9.3,1.1c-1.4-0.6-3.2-1.2-3.2-2.8c0-2.2,2.1-1.7,3.4-1.7c2.6,0,4.4-1.5,6-3.1
			c7.3-7,13.2-15,17.4-24.2c1.2-2.6,2.6-4,5.6-3.8c4,0.2,5,1.7,3.4,5.4c-3.3,7.7-8.1,14.5-13.9,20.6c-1.8,1.9-2.5,3.5-1.7,6.2
			c1.2,3.8,0.6,7.9,0.7,11.9c0.1,3.2-1.9,4-4.5,4c-2.6,0-4-1.2-4-3.9C91.9,78.6,91.9,75.5,91.9,72.2z"/>
		<path d="M49.1,75.4c3.8-6.3-1.7-9-5.9-12.4C35.8,57.1,32,48.8,28.3,40.4c-0.9-2-1.3-4.4,1.6-5.5c2.5-0.9,4-0.2,5.3,2.6
			c6.1,12.4,14.1,23.3,26.7,29.9c1.2,0.6,2.9,1.1,2.6,2.6c-0.4,2.1-2.5,2.7-4.3,2.6c-3.9-0.3-3.4,2.1-2.9,4.4
			c0.6,2.5,3.6,5.3-1.1,6.7c-3.7,1.1-6.1-1.1-7-5.7C49.3,77.4,49.2,76.8,49.1,75.4z"/>
		<path d="M75.5,97c8.3,0.6,15.8,3.1,21.2,10.1c1.1,1.5,2.9,3.6,1.1,5.3c-1.6,1.5-4.2,0.9-6.1-0.1c-1-0.5-1.7-1.5-2.6-2.4
			c-8.8-8.8-16.5-9.4-26.5-2.1c-0.9,0.7-1.9,1.4-2.7,2.2c-1.8,1.7-4.2,3.2-6.1,1.2c-1.8-2,0.6-4,1.9-5.5C61,99.8,67.8,97.7,75.5,97z
			"/>
	</g>
</g>
</svg>
