<?xml version="1.0" encoding="utf-8"?>
<!-- Generator: Adobe Illustrator 25.2.1, SVG Export Plug-In . SVG Version: 6.00 Build 0)  -->
<svg version="1.1" id="Layer_1" xmlns="http://www.w3.org/2000/svg" xmlns:xlink="http://www.w3.org/1999/xlink" x="0px" y="0px"
	 viewBox="0 0 144.2 141" enable-background="new 0 0 144.2 141" xml:space="preserve">
<path fill="#FFE523" d="M142.1,71.7c-0.8,21.6-8.9,42.3-29.5,56.1c-17.8,11.9-37.6,13.1-58,8.6c-19.4-4.3-35.3-13.6-45.3-31.3
	C2.9,94,1.7,81.7,2.2,69.3C2.8,53.9,5.7,38.9,16,26.4c0.4-0.5,0.8-1,1.3-1.5c27.2-30.4,77.9-28,102.7-6.6
	C135.4,31.6,141.9,49.1,142.1,71.7z"/>
<g>
	<path d="M142.1,71.8c-0.8,21.6-8.9,42.3-29.5,56.1c-17.8,11.9-37.6,13.1-58,8.6c-19.4-4.3-35.3-13.6-45.3-31.3
		c-6.3-11.1-7.5-23.4-7-35.8C2.8,54,5.7,39,16,26.5c0.4-0.5,0.8-1,1.3-1.5C44.5-5.4,95.1-3,119.9,18.4
		C135.4,31.7,141.9,49.2,142.1,71.8z M132.1,69.5c0.1-13.6-3.8-26-11.3-37.2C109.8,15.7,93.3,9.7,74.3,8.4
		C64,7.7,54.1,9.2,44.6,13.3c-1.1,0.5-3.3,0.9-2.6,2.4c2.4,5.4-2,5.5-4.7,5.7c-5.2,0.3-8.6,3-11.8,6.5c-3.4,3.8-6,8.1-7.6,12.8
		c-4,11.3-6.3,22.9-6,35.1c1.4,52.6,59.7,68.4,91.3,49.4C124.2,112.7,131.2,92.5,132.1,69.5z"/>
	<path d="M73.8,111.9c-14.3-0.4-26.5-4.7-33.7-18.2c-0.7-1.4-2.5-2.9-0.7-4.4c1.9-1.6,3.9-0.4,5.3,1.1c3.7,3.9,7.6,7.4,11.7,10.8
		c11.5,9.6,35.9,6.1,42.7-8.5c1-2.1,2.3-4.1,3.4-6.1c1.2-2.3,2.8-3.9,5.5-2.9c2.8,1,2.1,3.6,1.9,5.6c-0.8,6.4-4.7,10.9-9.8,14.4
		C92.2,109.1,83.3,111.7,73.8,111.9z"/>
	<path d="M95.9,63.1c-0.4,1.5-0.5,3.2-1.2,4.6c-0.9,2-2.9,2.7-5,2.4c-2.4-0.3-4-1.7-4-4.2c-0.1-7.9-0.2-15.8,1.2-23.7
		c0.3-1.8,1.3-2.9,3.3-3c2.2-0.1,3.2,1,3.8,3C96.1,49,94.2,56.1,95.9,63.1z"/>
	<path d="M59.1,54c-0.4,3.9,0,7.9-1.1,11.8c-0.9,3.2-2.9,4.2-5.9,3.8c-2.9-0.4-3.8-2.5-3.4-5.1c1.1-7.2,2.2-14.3,2.4-21.6
		c0.1-2.2,1.3-3.6,3.8-3.6c2.5-0.1,2.9,1.5,3.4,3.4C59.2,46.4,59.1,50.2,59.1,54z"/>
</g>
</svg>
