<?xml version="1.0" encoding="utf-8"?>
<!-- Generator: Adobe Illustrator 25.2.1, SVG Export Plug-In . SVG Version: 6.00 Build 0)  -->
<svg version="1.1" id="Layer_1" xmlns="http://www.w3.org/2000/svg" xmlns:xlink="http://www.w3.org/1999/xlink" x="0px" y="0px"
	 viewBox="0 0 144.2 141" enable-background="new 0 0 144.2 141" xml:space="preserve">
<circle fill="#FFE523" cx="72.1" cy="70.5" r="66.3"/>
<g id="nyOKsA.tif">
	<g>
		<path d="M82.9,0.9c14.7,3.5,28.4,9.3,38.9,20.6c18.9,20.3,25.2,44.1,16.5,70.4c-8.6,26.3-27.3,42.2-54.8,47.1
			c-39,7-73.1-20.4-80-55.2C-3.8,47.1,19.4,11.3,56.6,2.2c1.6-0.4,3.2-0.9,4.8-1.4C68.6,0.9,75.7,0.9,82.9,0.9z M72.4,9.7
			C38.5,9.6,11,36.6,11.2,70.1c0.2,34.2,26,61.2,60.5,61.2c36.5,0.1,60.9-28.6,61.2-60.6C133.3,37.1,106,9.8,72.4,9.7z"/>
		<path d="M75.6,112.1c-18-0.1-30-6.2-38.7-18.6c-1.7-2.5-3.5-5.4-0.3-7.8c3.4-2.6,5.7-0.2,7.6,2.7c14.7,21.2,43.8,18.3,55.4,0.2
			c1.8-2.9,4.3-5.3,7.7-2.9c3.6,2.6,1.3,5.7-0.5,8.2C98.6,105.6,87.2,111.7,75.6,112.1z"/>
		<path d="M49.4,51c4.7,0.1,8.4,3.8,8.2,8.4c-0.1,4.6-4.1,8.4-8.5,8.3c-4.7-0.1-8.2-3.8-8.1-8.6C41,54.2,44.4,50.9,49.4,51z"/>
		<path d="M95,67.6c-4.6,0.1-8.4-3.7-8.4-8.3C86.5,54.6,90,51,94.8,51c4.8,0,8.4,3.4,8.4,8.2C103.3,63.8,99.6,67.6,95,67.6z"/>
	</g>
</g>
</svg>
