<?xml version="1.0" encoding="utf-8"?>
<!-- Generator: Adobe Illustrator 25.2.1, SVG Export Plug-In . SVG Version: 6.00 Build 0)  -->
<svg version="1.1" id="Layer_1" xmlns="http://www.w3.org/2000/svg" xmlns:xlink="http://www.w3.org/1999/xlink" x="0px" y="0px"
	 viewBox="0 0 144.2 141" enable-background="new 0 0 144.2 141" xml:space="preserve">
<path fill="#FFE523" d="M2.1,71.8c0.2-14.3,2.4-28.1,10.2-40.5c1.2-2,2.6-3.9,4.3-5.5c8.9-8.6,18-17,30.4-20
	c28.5-6.8,55.7-5,77.2,17.4c18.6,19.5,21.6,43.6,14,68.8c-9.8,32.3-36.1,48.3-69.2,46.5c-13.4-0.7-26.2-4.1-37.9-11
	c-19.1-11.3-28.2-28.3-29-50.2C2.1,75.5,2.1,73.6,2.1,71.8z"/>
<g>
	<path d="M2.1,71.9c0.2-14.3,2.4-28.1,10.2-40.5c1.2-2,2.6-3.9,4.3-5.5c8.9-8.6,18-17,30.4-20c28.5-6.8,55.7-5,77.2,17.4
		c18.6,19.5,21.6,43.6,14,68.8c-9.8,32.3-36.1,48.3-69.2,46.5c-13.4-0.7-26.2-4.1-37.9-11c-19.1-11.3-28.2-28.3-29-50.2
		C2.1,75.6,2.1,73.7,2.1,71.9z M12,69c0,30.6,11.1,48.7,35.3,58.6c20.7,8.5,41.6,8.3,60.2-5.4c26.4-19.4,32.2-62.3,13.4-89.5
		C109.1,15.6,92.2,9.5,72.6,8.6C63,8.2,53.7,9.5,44.9,13.5c-1.1,0.5-3.4,0.8-2.8,2.2c2.4,5.7-2.6,6-5.1,6.1
		c-6.8,0.2-10.6,4.3-13.8,9.2C14.9,43.7,12.3,58,12,69z"/>
	<path d="M72.7,83.2c15.1,0.8,28,5.8,35,20.7c0.7,1.4,2.5,3.5,0.2,4.8c-2,1.1-3.7-0.2-5.1-1.9c-4.1-5-8.2-10-13.7-13.6
		c-14-9-32.3-4.9-41.2,9.2c-1.1,1.8-2.4,3.6-3.6,5.3c-1.3,1.7-3,2-4.9,1.3c-1.8-0.7-1.6-2.3-1.5-3.8c0.2-5.4,2.9-9.5,6.9-12.7
		C52.8,86.3,62.2,83.6,72.7,83.2z"/>
	<path d="M85.7,59.4c0.3-5.8-1.4-10.7-0.2-15.7c0.5-2.2,1-4.2,3.9-4.3c2.7-0.1,3.2,1.9,3.7,3.9c1.8,7.1,2.1,14.4,2.9,21.7
		c0.3,3.2-1.7,5-4.7,5.3c-3.3,0.4-4.8-1.8-5.2-4.7C85.7,63.2,85.8,60.8,85.7,59.4z"/>
	<path d="M59.7,48.8c-0.4,4.6-1.3,10.4-2.6,16c-0.9,3.6-3.1,5.6-6.9,4.5c-3.8-1.1-3.3-4-2.5-6.9c1.7-5.9,3.2-11.8,4.3-17.9
		c0.4-2.2,0.1-5.4,3.9-5.2c4,0.1,3.5,3.2,3.8,5.8C59.8,46,59.7,46.8,59.7,48.8z"/>
</g>
</svg>
