<?xml version="1.0" encoding="utf-8"?>
<!-- Generator: Adobe Illustrator 25.2.1, SVG Export Plug-In . SVG Version: 6.00 Build 0)  -->
<svg version="1.1" id="Layer_1" xmlns="http://www.w3.org/2000/svg" xmlns:xlink="http://www.w3.org/1999/xlink" x="0px" y="0px"
	 viewBox="0 0 144.2 141" enable-background="new 0 0 144.2 141" xml:space="preserve">
<circle fill="#FFE523" cx="72.1" cy="70.5" r="66.3"/>
<g id="ucMBWw.tif">
	<g>
		<path d="M75.1,0.7c40.4,1.8,68.8,36,67,72.5c-2.1,42.4-37.6,70-75.5,66.9c-38.1-3.2-67.2-37.2-64.2-73.9C5.7,25,40.3-0.8,75.1,0.7
			z M72.3,131.2c33.8-0.1,60.9-27.2,60.9-60.8c0-33.1-28.1-61.1-61.1-61C38.4,9.6,11.3,37.1,11.3,71.2
			C11.4,104.2,38.9,131.3,72.3,131.2z"/>
		<path d="M109.3,101.4c-0.1,2.3-0.6,3.6-2,4.4c-1.8,1-3.7,0.9-5.3-0.6c-1.2-1.1-2.1-2.6-3.1-3.9C84.6,83.3,59,83.5,45.2,101.8
			c-0.5,0.7-1,1.4-1.4,2.1c-1.9,2.7-4.4,3.5-7,1.6c-2.6-1.9-1.8-4.5-0.3-6.7c6.5-9.7,15.1-16.4,26.7-18.6c17.7-3.4,32.3,2,43.4,16.5
			C107.7,98.2,108.6,100.1,109.3,101.4z"/>
		<path d="M86.7,58.9c0.2-4.5,4.3-8.3,8.8-8.1c4.4,0.1,8.1,4.3,7.9,8.9c-0.2,4.7-4.1,8.3-8.7,8.1C90.2,67.5,86.4,63.4,86.7,58.9z"/>
		<path d="M57.8,59.3c-0.1,4.4-4.1,8.5-8.5,8.5c-4.6,0-8.3-3.7-8.3-8.5c0-4.8,3.7-8.6,8.2-8.5C53.7,50.8,57.9,55,57.8,59.3z"/>
	</g>
</g>
</svg>
