<?xml version="1.0" encoding="utf-8"?>
<!-- Generator: Adobe Illustrator 25.2.1, SVG Export Plug-In . SVG Version: 6.00 Build 0)  -->
<svg version="1.1" id="Layer_1" xmlns="http://www.w3.org/2000/svg" xmlns:xlink="http://www.w3.org/1999/xlink" x="0px" y="0px"
	 viewBox="0 0 144.2 141" enable-background="new 0 0 144.2 141" xml:space="preserve">
<g>
	<path fill="#FFE523" d="M142.1,66.3c-0.7-21.2-8.7-39.2-26.5-51.2c-20.9-14.2-44.1-16-68-9.3c-8.3,2.3-16,6-22.4,12.8
		c-4.5,4.7-10.3,8.4-13.7,14.2C4.4,45.1,2.3,58.5,2.1,68.2C2,88,4.9,103,15.9,115c17.5,19.2,40.1,25.2,65.2,23.7
		c13.3-0.8,25.5-4.8,35.8-13.4C135.2,109.9,142.9,89.8,142.1,66.3z"/>
</g>
<g id="c3xC7I_2_">
	<g>
		<path d="M2.1,68.3c0.2-9.8,2.2-23.2,9.3-35.4c3.4-5.9,9.2-9.5,13.7-14.2c6.4-6.8,14.1-10.5,22.4-12.8c23.9-6.7,47.1-4.9,68,9.3
			c17.8,12.1,25.8,30.1,26.5,51.2c0.8,23.5-6.8,43.6-25.1,58.9c-10.3,8.6-22.5,12.6-35.8,13.4c-25.2,1.6-47.7-4.4-65.2-23.7
			C4.9,103.1,2,88.1,2.1,68.3z M12,72.2c0.1,24,8.7,42.8,30.6,53.5c21.2,10.4,42.7,11.3,63.2-1.6c14.6-9.1,22.1-23.5,25.1-39.9
			c4.7-25.6-1.3-48.2-22.5-64.8C95.7,9.4,80.3,8.1,64.7,8.8c-6.6,0.3-13.2,1.6-19.3,4.5c-1.2,0.6-3.6,1.1-2.9,2.7
			c2.3,5.3-2.8,5.7-4.6,5.7c-8.5,0-12.5,5.6-16,11.7C14.8,45.5,12.2,58.8,12,72.2z"/>
		<path d="M73.6,62.5c-6,11.2-15.2,16.7-27.6,15.3C35.4,76.7,28.4,70.2,25.4,60c-2.9-9.6,1.2-21.4,9.6-27.6
			c7.1-5.3,15.1-8.4,24.2-8.2c3.9,0.1,7.4,1.4,8.4,5.7c0.7,3,3.7,3.1,5.2,5c0.7,0.9,1.2-0.3,1.6-1c7.9-13.3,27.8-12.4,38.7,0.3
			c12.4,14.4,6.5,32.2-12,36.4C90.8,72.8,81.2,71.6,73.6,62.5z M58.3,28.5l0.2,0.2c-2-1.7-4.3-1.6-6.5-1.1
			c-13.5,3-27.4,19.5-18.8,36.8c5.7,11.5,20.9,14.1,29.8,4.7C69.7,62,71.5,53,71,43.7C70.6,36.6,64.1,29.5,58.3,28.5z M93.9,68.5
			c5.8,0,10.7-1.8,14.5-6.3c5.2-6.2,6.6-13.2,3-20.4c-4-8.1-10.4-13.8-20.1-14c-3.5-0.1-6.6,1.3-8.4,4.5c-2.8,5-4.7,10.6-6.2,16
			C73.7,59,82.5,68.6,93.9,68.5z"/>
		<path d="M91.2,100c0,3.7-0.7,7.3-1.9,10.7c-2.8,8.5-10.8,11.2-18.2,6.2c-7.3-5-11.1-18.3-6.6-26c2.6-4.6,7.1-7.9,12.2-9.5
			c5.4-1.7,9.7,0.7,12,6C90.2,90.4,91.2,96.1,91.2,100z"/>
		<path d="M58.3,28.5c2.9,6.8,2.3,13.9,2.1,21c-0.1,2.8-2.1,3.9-4.8,3.9c-2.8,0-4.4-1.3-4.6-4.1c-0.4-6-0.1-11.9,1-17.8
			c0.7-3.9,3.5-3.7,6.5-2.9C58.5,28.6,58.3,28.5,58.3,28.5z"/>
		<path d="M85.8,41.7c0.1-2.7,0.6-5.2,2.7-6.9c1.6-1.3,3.6-2,5.6-1.1c2.3,1,0.7,2.8,0.4,4.3c-0.6,3.6,0.8,6.8,2,10.1
			c0.9,2.5,2.5,5.4-1.1,6.9c-3.6,1.5-6.1-0.4-7.5-3.7C86.6,48.2,86.1,44.9,85.8,41.7z"/>
	</g>
</g>
</svg>
