<?xml version="1.0" encoding="utf-8"?>
<!-- Generator: Adobe Illustrator 25.2.1, SVG Export Plug-In . SVG Version: 6.00 Build 0)  -->
<svg version="1.1" id="Layer_1" xmlns="http://www.w3.org/2000/svg" xmlns:xlink="http://www.w3.org/1999/xlink" x="0px" y="0px"
	 viewBox="0 0 144.2 141" enable-background="new 0 0 144.2 141" xml:space="preserve">
<circle fill="#FFE523" cx="72.1" cy="70.5" r="66.3"/>
<g>
	<g>
		<path d="M75.1,0.7c40.4,1.8,68.8,36,67,72.5c-2.1,42.4-37.6,70-75.5,66.9c-38.1-3.2-67.2-37.2-64.2-73.9C5.7,25,40.3-0.8,75.1,0.7
			z M72.3,131.2c33.8-0.1,60.9-27.2,60.9-60.8c0-33.1-28.1-61.1-61.1-61C38.4,9.6,11.3,37.1,11.3,71.2
			C11.4,104.2,38.9,131.3,72.3,131.2z"/>
	</g>
	<g id="_x36_WycWw.tif">
		<g>
			<path d="M69.6,62.3C69.6,75.9,59,86.8,45.5,87.1C32.2,87.3,21.1,76.2,21,62.7C20.9,49,31.5,38.1,45.1,38
				C58.6,37.8,69.5,48.6,69.6,62.3z M45.3,47.1c-8.6-0.1-15.2,6.4-15.3,15c-0.1,8.8,6.6,15.9,15.1,16c8.2,0.1,15.1-6.8,15.4-15.2
				C60.8,54.1,54.2,47.2,45.3,47.1z"/>
			<path d="M98.5,38c13.3-0.1,24.7,10.9,24.8,24.1c0.1,13.3-10.8,24.6-24.1,24.9c-13.3,0.4-25-11.1-25.1-24.5
				C74.1,49.1,85,38.1,98.5,38z M98.6,47.1c-8.8,0.1-15.4,6.9-15.2,15.7c0.1,8.6,7.3,15.6,15.8,15.3c8.1-0.3,15.1-7.5,15.1-15.6
				C114.3,53.9,107.2,47,98.6,47.1z"/>
			<path d="M53.1,62.9c-0.7,4.3-3.1,7.1-7.9,7c-4.8-0.1-7.3-2.9-7.5-7.5c-0.2-4.4,3.8-8.2,8.1-7.7C50.2,55.3,52.9,57.9,53.1,62.9z"
				/>
			<path d="M106.4,62.3c-0.5,4.6-2.7,7.5-7.5,7.6c-4.5,0.2-8.3-3.4-7.9-7.8c0.4-4.7,3.3-7.4,7.8-7.3C103.3,54.9,106,57.7,106.4,62.3
				z"/>
			<path d="M80,105.8c-0.5,4.6-2.7,7.5-7.5,7.6c-4.5,0.2-8.3-3.4-7.9-7.8c0.4-4.7,3.3-7.4,7.8-7.3C76.9,98.3,79.5,101.2,80,105.8z"
				/>
		</g>
	</g>
</g>
</svg>
