<svg xmlns="http://www.w3.org/2000/svg" viewBox="0 0 196.76 295.05"><defs><style>.cls-1{font-size:12px;stroke-width:0.25px;font-family:Arial-BoldMT, Arial;font-weight:700;}.cls-1,.cls-8{fill:none;}.cls-1,.cls-7,.cls-8{stroke:#000;stroke-miterlimit:10;}.cls-2{letter-spacing:6.3em;}.cls-3{letter-spacing:5.42em;}.cls-4{letter-spacing:9.62em;}.cls-5{letter-spacing:8.73em;}.cls-6{letter-spacing:9.42em;}.cls-7{stroke-width:0.15px;}.cls-8{stroke-width:0.5px;}.cls-9{font-size:7.78px;font-family:ArialMT, Arial;}.cls-10{font-size:6px;font-family:TimesNewRomanPSMT, Times New Roman;}</style></defs><g id="Layer_2" data-name="Layer 2"><g id="Layer_1-2" data-name="Layer 1"><text class="cls-1" transform="translate(135.11 294.92) rotate(-90)">p.1<tspan class="cls-2" x="17.34" y="0"> </tspan><tspan class="cls-3" x="96.23" y="0"> </tspan><tspan x="164.58" y="0">About</tspan><tspan class="cls-2" x="199.24" y="0"> </tspan><tspan x="278.13" y="0">Me</tspan><tspan x="0" y="19">p.3</tspan><tspan class="cls-4" x="17.34" y="19" xml:space="preserve">  </tspan><tspan x="254.79" y="19">Design</tspan><tspan x="0" y="38">p.5</tspan><tspan class="cls-5" x="17.34" y="38" xml:space="preserve">  </tspan><tspan x="233.47" y="38">Publishing</tspan><tspan x="0" y="57">p.7</tspan><tspan class="cls-6" x="17.34" y="57" xml:space="preserve">  </tspan><tspan x="250.13" y="57">Contact</tspan></text><path class="cls-7" d="M16.43,33,15,49c-.07.75-.11,1.24-.11,1.48a1.48,1.48,0,0,0,.21.86,1.67,1.67,0,0,0,.73.61,4.37,4.37,0,0,0,1.55.2l-.15.52H9.64l.15-.52h.33a2.58,2.58,0,0,0,1.5-.4,1.78,1.78,0,0,0,.64-.89,11.1,11.1,0,0,0,.29-2.07l.23-2.43H7.29L5.33,49A8,8,0,0,0,4.5,50.3a1.72,1.72,0,0,0-.17.73,1,1,0,0,0,.36.77,1.94,1.94,0,0,0,1.22.36l-.15.52H.08l.15-.52a3,3,0,0,0,1.85-.7,17.63,17.63,0,0,0,2.39-2.81L15.94,33Zm-2.8,4.72L8.06,45.33h4.83Z" transform="translate(0.02)"/><path class="cls-7" d="M46.34,33l-1.43,6.22H44.4l-.06-1.56A5.17,5.17,0,0,0,44,36.19,3.15,3.15,0,0,0,43.25,35,3.56,3.56,0,0,0,42,34.27,5,5,0,0,0,40.24,34a7.31,7.31,0,0,0-4.44,1.39,11.74,11.74,0,0,0-3.79,5,13.55,13.55,0,0,0-1.13,5.39,6.09,6.09,0,0,0,1.63,4.46,5.67,5.67,0,0,0,4.23,1.66,6.87,6.87,0,0,0,3.5-.88,9.26,9.26,0,0,0,2.86-2.7h.66A11.15,11.15,0,0,1,40.31,52a8.51,8.51,0,0,1-4.55,1.17,8.64,8.64,0,0,1-4.16-1,6.64,6.64,0,0,1-2.76-2.77,8.09,8.09,0,0,1-.95-3.84A12.76,12.76,0,0,1,34.2,34.74,11.75,11.75,0,0,1,40.12,33a8.8,8.8,0,0,1,3.15.67,3.66,3.66,0,0,0,1.1.28,1.27,1.27,0,0,0,.6-.14,4.54,4.54,0,0,0,.85-.81Z" transform="translate(0.02)"/><path class="cls-7" d="M49.07,33.48h8.12L57,34a5.75,5.75,0,0,0-1.78.24,2,2,0,0,0-.9.73,6.8,6.8,0,0,0-.79,1.94l-2,6.8c-.35,1.2-.55,2-.62,2.37a9.57,9.57,0,0,0-.17,1.69,3.81,3.81,0,0,0,1.27,2.9,4.87,4.87,0,0,0,3.42,1.18,5.74,5.74,0,0,0,2.5-.53,5.49,5.49,0,0,0,1.89-1.49,9.55,9.55,0,0,0,1.44-2.59c.43-1.09.82-2.19,1.15-3.31l1.7-5.86a13.87,13.87,0,0,0,.63-2.86,1,1,0,0,0-.43-.8A3.47,3.47,0,0,0,62.62,34l.16-.52h6.1l-.15.52a4.1,4.1,0,0,0-1.55.21,1.88,1.88,0,0,0-.83.74,8.34,8.34,0,0,0-.8,2.06l-2.08,7.12a28.2,28.2,0,0,1-1.89,5.12A7.66,7.66,0,0,1,59,52a7.51,7.51,0,0,1-4.2,1.11,6.6,6.6,0,0,1-4.66-1.63,5,5,0,0,1-1.77-3.75A11.41,11.41,0,0,1,48.52,46c.08-.42.26-1.14.55-2.16L51,37.28a9,9,0,0,0,.4-2.09,1,1,0,0,0-.41-.81,4.75,4.75,0,0,0-2-.38Z" transform="translate(0.02)"/><path class="cls-7" d="M70.47,33.48H85.05l-1.57,5.1h-.54a8.64,8.64,0,0,0,.27-2A1.91,1.91,0,0,0,82.58,35a4.78,4.78,0,0,0-2.48-.39H78.58L74.79,47.85a17.47,17.47,0,0,0-.73,3.08,1.07,1.07,0,0,0,.46.88,2.72,2.72,0,0,0,1.6.35h.65l-.17.52H68.25l.15-.52h.37a3.31,3.31,0,0,0,1.7-.36,2.12,2.12,0,0,0,.74-.87,18,18,0,0,0,.93-2.67l4-13.63H75a7.11,7.11,0,0,0-2.67.42,4,4,0,0,0-1.63,1.24,6.28,6.28,0,0,0-1,2.29h-.53Z" transform="translate(0.02)"/><path class="cls-7" d="M91.74,34.51l-2.2,7.59h1.8a5.13,5.13,0,0,0,2.79-.58,4.58,4.58,0,0,0,1.49-2.18h.52l-2,7h-.56a5.49,5.49,0,0,0,.25-1.5,1.7,1.7,0,0,0-.25-1,1.47,1.47,0,0,0-.68-.54,5.71,5.71,0,0,0-1.82-.18H89.29l-1.86,6.36a5.43,5.43,0,0,0-.27,1.4.81.81,0,0,0,.36.65,2.24,2.24,0,0,0,1.2.2h1.7a8.73,8.73,0,0,0,4.43-1,8.54,8.54,0,0,0,3-3.4h.52l-1.81,5.34H81.7l.18-.52a4.69,4.69,0,0,0,1.49-.2,1.84,1.84,0,0,0,.82-.65,10.52,10.52,0,0,0,.91-2.44l3.37-11.58a8.71,8.71,0,0,0,.39-2.14,1,1,0,0,0-.37-.84A2.5,2.5,0,0,0,87,34h-.3l.17-.52h13.8L99.5,38.11H99a7,7,0,0,0,.1-1.09,2.07,2.07,0,0,0-.37-1.26,3,3,0,0,0-1.4-1,11.37,11.37,0,0,0-3.13-.26Z" transform="translate(0.02)"/><path class="cls-7" d="M14.79,82.68H.56l.2-.52A4.83,4.83,0,0,0,2.27,82a2,2,0,0,0,.88-.66A9.65,9.65,0,0,0,4.09,79L7.47,67.28a8.63,8.63,0,0,0,.42-2.13,1,1,0,0,0-.39-.83A2.49,2.49,0,0,0,6,64l-.38,0,.17-.52h7.83l-.12.52a4.79,4.79,0,0,0-1.86.26,2.19,2.19,0,0,0-.93.84,12.61,12.61,0,0,0-.83,2.37L6.59,79a8,8,0,0,0-.38,1.81.87.87,0,0,0,.38.65,1.85,1.85,0,0,0,1.09.21H9.54a8.28,8.28,0,0,0,3.21-.51A4.85,4.85,0,0,0,14.36,80a15.51,15.51,0,0,0,1.41-2.11l.37-.64h.52Z" transform="translate(0.02)"/><path class="cls-7" d="M24.77,82.16l-.15.52h-7.9l.19-.52a5.09,5.09,0,0,0,1.58-.2,1.92,1.92,0,0,0,.92-.67,8.64,8.64,0,0,0,1-2.37l3.34-11.59a8.72,8.72,0,0,0,.43-2.18,1.06,1.06,0,0,0-.19-.62,1.13,1.13,0,0,0-.56-.39A5.07,5.07,0,0,0,21.93,64l.17-.52h7.42l-.16.52a3.27,3.27,0,0,0-1.34.2,2.11,2.11,0,0,0-1,.81,10.47,10.47,0,0,0-.86,2.32L22.86,78.92a10.34,10.34,0,0,0-.45,2,1,1,0,0,0,.18.6,1.09,1.09,0,0,0,.56.38A8,8,0,0,0,24.77,82.16Z" transform="translate(0.02)"/><path class="cls-7" d="M31.53,63.48H46.11l-1.57,5.1H44a8.64,8.64,0,0,0,.27-2A1.91,1.91,0,0,0,43.64,65a4.78,4.78,0,0,0-2.48-.39H39.64L35.85,77.85a17.47,17.47,0,0,0-.73,3.08,1.07,1.07,0,0,0,.46.88,2.72,2.72,0,0,0,1.6.35h.65l-.17.52H29.31l.15-.52h.37a3.33,3.33,0,0,0,1.7-.36,2.12,2.12,0,0,0,.74-.87,18,18,0,0,0,.93-2.67l4-13.63H36a7.11,7.11,0,0,0-2.67.42,4,4,0,0,0-1.63,1.24,6.28,6.28,0,0,0-1,2.29h-.53Z" transform="translate(0.02)"/><path class="cls-7" d="M47.66,63.48H62.24l-1.57,5.1h-.54a8.64,8.64,0,0,0,.27-2A1.89,1.89,0,0,0,59.76,65a4.73,4.73,0,0,0-2.48-.39H55.77L52,77.85a17,17,0,0,0-.72,3.08,1,1,0,0,0,.46.88,2.72,2.72,0,0,0,1.6.35H54l-.17.52H45.43l.16-.52H46a3.33,3.33,0,0,0,1.7-.36,2.12,2.12,0,0,0,.74-.87,18,18,0,0,0,.93-2.67l4-13.63H52.16a7,7,0,0,0-2.67.42,4,4,0,0,0-1.64,1.24,6.63,6.63,0,0,0-1,2.29h-.52Z" transform="translate(0.02)"/><path class="cls-7" d="M72.83,82.68H58.6l.2-.52A4.91,4.91,0,0,0,60.32,82a2,2,0,0,0,.87-.66A8.89,8.89,0,0,0,62.13,79l3.38-11.68a8.3,8.3,0,0,0,.43-2.13,1,1,0,0,0-.39-.83,2.55,2.55,0,0,0-1.47-.3l-.38,0,.17-.52H71.7l-.11.52a4.85,4.85,0,0,0-1.87.26,2.11,2.11,0,0,0-.92.84A12.32,12.32,0,0,0,68,67.47L64.63,79a8,8,0,0,0-.38,1.81.87.87,0,0,0,.38.65,1.85,1.85,0,0,0,1.09.21h1.86a8.28,8.28,0,0,0,3.21-.51A4.89,4.89,0,0,0,72.41,80a16.91,16.91,0,0,0,1.4-2.11l.37-.64h.52Z" transform="translate(0.02)"/><path class="cls-7" d="M85.05,64.51,82.86,72.1h1.8a5.13,5.13,0,0,0,2.79-.58,4.57,4.57,0,0,0,1.48-2.18h.53l-2,7h-.57a5.55,5.55,0,0,0,.26-1.5,1.7,1.7,0,0,0-.25-1,1.47,1.47,0,0,0-.68-.54,5.75,5.75,0,0,0-1.82-.18H82.6l-1.85,6.36a5.43,5.43,0,0,0-.27,1.4.83.83,0,0,0,.35.65,2.29,2.29,0,0,0,1.21.2h1.7a8.69,8.69,0,0,0,4.42-1,8.39,8.39,0,0,0,3-3.4h.53l-1.82,5.34H75l.19-.52a4.69,4.69,0,0,0,1.49-.2,1.9,1.9,0,0,0,.82-.65,10.65,10.65,0,0,0,.9-2.44l3.37-11.58a8.36,8.36,0,0,0,.4-2.14,1,1,0,0,0-.38-.84A2.48,2.48,0,0,0,80.34,64H80l.17-.52H94l-1.19,4.63h-.52a7,7,0,0,0,.1-1.09A2.07,2.07,0,0,0,92,65.76a3,3,0,0,0-1.4-1,11.42,11.42,0,0,0-3.13-.26Z" transform="translate(0.02)"/><path class="cls-7" d="M105,63.48h13.33V64L104.09,81.76h2.22a25.44,25.44,0,0,0,5.08-.35,5.71,5.71,0,0,0,2.46-1.23,6.65,6.65,0,0,0,1.65-2.5H116l-1.66,5H100.57v-.41l14.26-17.76h-4a18.94,18.94,0,0,0-3.66.24,3.68,3.68,0,0,0-1.82,1,5.37,5.37,0,0,0-1.28,2.16h-.5Z" transform="translate(0.02)"/><path class="cls-7" d="M123.91,82.16l-.16.52h-7.9l.2-.52a5,5,0,0,0,1.57-.2,1.83,1.83,0,0,0,.92-.67,8.59,8.59,0,0,0,1-2.37l3.34-11.59a8.6,8.6,0,0,0,.42-2.18,1.05,1.05,0,0,0-.18-.62,1.13,1.13,0,0,0-.56-.39,5.1,5.1,0,0,0-1.47-.14l.17-.52h7.42l-.15.52a3.33,3.33,0,0,0-1.35.2,2.17,2.17,0,0,0-1,.81,11.2,11.2,0,0,0-.85,2.32L122,78.92a10.34,10.34,0,0,0-.45,2,1,1,0,0,0,.17.6,1.17,1.17,0,0,0,.57.38A8,8,0,0,0,123.91,82.16Z" transform="translate(0.02)"/><path class="cls-7" d="M134.73,63.48l5.93,15.05,3.22-11.24a8.54,8.54,0,0,0,.39-2.15,1,1,0,0,0-.37-.82,2.25,2.25,0,0,0-1.37-.3l-.35,0,.15-.52h6.18l-.17.52a3.68,3.68,0,0,0-1.43.2,2.37,2.37,0,0,0-1,.77,9,9,0,0,0-.92,2.32l-4.51,15.83H140l-6.39-16.2-3.41,12a8.08,8.08,0,0,0-.38,2.08,1,1,0,0,0,.34.81,3.47,3.47,0,0,0,1.65.38l-.14.52h-6l.2-.52a4.74,4.74,0,0,0,1.51-.2,2,2,0,0,0,.87-.67,9.85,9.85,0,0,0,.92-2.4l3.81-13.36a3.25,3.25,0,0,0-1.19-1.16,4.77,4.77,0,0,0-2-.37l.16-.52Z" transform="translate(0.02)"/><path class="cls-7" d="M155.15,64.51,153,72.1h1.8a5.13,5.13,0,0,0,2.79-.58A4.58,4.58,0,0,0,159,69.34h.52l-2,7H157a5.49,5.49,0,0,0,.25-1.5,1.7,1.7,0,0,0-.25-1,1.47,1.47,0,0,0-.68-.54,5.71,5.71,0,0,0-1.82-.18H152.7l-1.86,6.36a5.43,5.43,0,0,0-.27,1.4.81.81,0,0,0,.36.65,2.24,2.24,0,0,0,1.2.2h1.7a8.73,8.73,0,0,0,4.43-1,8.54,8.54,0,0,0,3-3.4h.52L160,82.68H145.11l.18-.52a4.69,4.69,0,0,0,1.49-.2,1.84,1.84,0,0,0,.82-.65,10.52,10.52,0,0,0,.91-2.44l3.37-11.58a8.71,8.71,0,0,0,.39-2.14,1,1,0,0,0-.37-.84,2.5,2.5,0,0,0-1.47-.31h-.3l.17-.52h13.8l-1.19,4.63h-.53a7,7,0,0,0,.1-1.09,2.07,2.07,0,0,0-.37-1.26,3,3,0,0,0-1.4-1,11.37,11.37,0,0,0-3.13-.26Z" transform="translate(0.02)"/><path class="cls-7" d="M16.43,93,15,109c-.07.75-.11,1.24-.11,1.48a1.48,1.48,0,0,0,.21.86,1.67,1.67,0,0,0,.73.61,4.37,4.37,0,0,0,1.55.2l-.15.52H9.64l.15-.52h.33a2.58,2.58,0,0,0,1.5-.4,1.78,1.78,0,0,0,.64-.89,11.1,11.1,0,0,0,.29-2.07l.23-2.43H7.29l-2,2.64a8,8,0,0,0-.83,1.29,1.72,1.72,0,0,0-.17.73,1,1,0,0,0,.36.77,1.94,1.94,0,0,0,1.22.36l-.15.52H.08l.15-.52a3,3,0,0,0,1.85-.7,17.63,17.63,0,0,0,2.39-2.81L15.94,93Zm-2.8,4.72-5.57,7.57h4.83Z" transform="translate(0.02)"/><path class="cls-7" d="M23.5,94l.2-.52h6.85a8.25,8.25,0,0,1,3.08.54,4.39,4.39,0,0,1,2,1.5,3.55,3.55,0,0,1,.67,2,4.37,4.37,0,0,1-1.2,3,7.38,7.38,0,0,1-3.9,2,5.49,5.49,0,0,1,2.56,1.73,3.76,3.76,0,0,1,.82,2.36,5.43,5.43,0,0,1-.73,2.73,5.53,5.53,0,0,1-1.89,2,8.4,8.4,0,0,1-2.78,1.06,19.81,19.81,0,0,1-3.63.24h-7l.19-.52a4.51,4.51,0,0,0,1.5-.21,1.65,1.65,0,0,0,.8-.64,11.93,11.93,0,0,0,.91-2.47l3.44-11.62a8.24,8.24,0,0,0,.44-2.07,1,1,0,0,0-.39-.83A2.57,2.57,0,0,0,24,94Zm.08,17.44a20,20,0,0,0,2.4.19,6.17,6.17,0,0,0,3.91-1.33,4.32,4.32,0,0,0,1.71-3.61A3.52,3.52,0,0,0,30.54,104a4.9,4.9,0,0,0-3.4-1c-.3,0-.67,0-1.11,0ZM26.37,102l1.33,0a6.41,6.41,0,0,0,4.39-1.29,4.09,4.09,0,0,0,1.43-3.2,3,3,0,0,0-.87-2.28,4.07,4.07,0,0,0-2.81-.81,6.71,6.71,0,0,0-1.3.17Z" transform="translate(0.02)"/><path class="cls-7" d="M51.21,93a6.84,6.84,0,0,1,3.39.83,5.69,5.69,0,0,1,2.3,2.45,7.21,7.21,0,0,1,.84,3.36A13.93,13.93,0,0,1,56,106.16a13.2,13.2,0,0,1-4.68,5.18,11.23,11.23,0,0,1-6,1.78,6.69,6.69,0,0,1-3.72-1,5.91,5.91,0,0,1-2.2-2.6,7.68,7.68,0,0,1-.72-3.13,11.85,11.85,0,0,1,1.3-5.32A15.94,15.94,0,0,1,43,96.7,13.89,13.89,0,0,1,46.88,94,10.17,10.17,0,0,1,51.21,93Zm-.48.91a5.93,5.93,0,0,0-2.77.7,9.13,9.13,0,0,0-2.68,2.29,16.24,16.24,0,0,0-2.4,4.17,16,16,0,0,0-1.3,6,6.31,6.31,0,0,0,1,3.57,3.55,3.55,0,0,0,3.17,1.55,5.48,5.48,0,0,0,2.52-.64,9.22,9.22,0,0,0,2.59-2.18,16.49,16.49,0,0,0,2.83-5,15.75,15.75,0,0,0,1.15-5.62,5.86,5.86,0,0,0-1-3.4A3.55,3.55,0,0,0,50.73,94Z" transform="translate(0.02)"/><path class="cls-7" d="M61.66,93.48h8.11l-.15.52a5.75,5.75,0,0,0-1.78.24,2,2,0,0,0-.9.73,6.8,6.8,0,0,0-.79,1.94l-2,6.8c-.35,1.2-.55,2-.62,2.37a9.57,9.57,0,0,0-.17,1.69,3.81,3.81,0,0,0,1.27,2.9,4.87,4.87,0,0,0,3.42,1.18,5.74,5.74,0,0,0,2.5-.53,5.49,5.49,0,0,0,1.89-1.49,9.55,9.55,0,0,0,1.44-2.59c.43-1.09.82-2.19,1.15-3.31l1.7-5.86a13.87,13.87,0,0,0,.63-2.86,1,1,0,0,0-.43-.8A3.47,3.47,0,0,0,75.21,94l.16-.52h6.1l-.15.52a4.1,4.1,0,0,0-1.55.21,1.88,1.88,0,0,0-.83.74,8.34,8.34,0,0,0-.8,2.06l-2.08,7.12a28.2,28.2,0,0,1-1.89,5.12A7.66,7.66,0,0,1,71.58,112a7.51,7.51,0,0,1-4.2,1.11,6.6,6.6,0,0,1-4.66-1.63A5,5,0,0,1,61,107.74a11.41,11.41,0,0,1,.16-1.78c.08-.42.26-1.14.55-2.16l1.9-6.52a9,9,0,0,0,.4-2.09,1,1,0,0,0-.41-.81,4.75,4.75,0,0,0-2-.38Z" transform="translate(0.02)"/><path class="cls-7" d="M83.06,93.48H97.64l-1.57,5.1h-.54a8.64,8.64,0,0,0,.27-2A1.91,1.91,0,0,0,95.17,95a4.78,4.78,0,0,0-2.48-.39H91.17l-3.79,13.22a17.47,17.47,0,0,0-.73,3.08,1.07,1.07,0,0,0,.46.88,2.72,2.72,0,0,0,1.6.35h.65l-.17.52H80.84l.15-.52h.37a3.31,3.31,0,0,0,1.7-.36,2.12,2.12,0,0,0,.74-.87,18,18,0,0,0,.93-2.67l4-13.63H87.56a7.11,7.11,0,0,0-2.67.42,4,4,0,0,0-1.63,1.24,6.28,6.28,0,0,0-1,2.29h-.53Z" transform="translate(0.02)"/><path class="cls-7" d="M116.08,93l-1.46,16c-.07.75-.11,1.24-.11,1.48a1.48,1.48,0,0,0,.21.86,1.62,1.62,0,0,0,.73.61,4.33,4.33,0,0,0,1.55.2l-.16.52h-7.56l.16-.52h.32a2.59,2.59,0,0,0,1.51-.4,1.71,1.71,0,0,0,.63-.89,10,10,0,0,0,.3-2.07l.23-2.43h-5.5L105,109a8.25,8.25,0,0,0-.84,1.29,1.88,1.88,0,0,0-.17.73,1,1,0,0,0,.37.77,1.92,1.92,0,0,0,1.22.36l-.16.52H99.73l.15-.52a3,3,0,0,0,1.85-.7,17.73,17.73,0,0,0,2.38-2.81L115.58,93Zm-2.8,4.72-5.57,7.57h4.83Z" transform="translate(0.02)"/><path class="cls-7" d="M21.9,123l-1.43,6.22H20l-.06-1.56a5.52,5.52,0,0,0-.32-1.51,3.15,3.15,0,0,0-.77-1.16,3.56,3.56,0,0,0-1.29-.76A5,5,0,0,0,15.8,124a7.31,7.31,0,0,0-4.44,1.39,11.67,11.67,0,0,0-3.79,5,13.55,13.55,0,0,0-1.13,5.39,6.13,6.13,0,0,0,1.62,4.46,5.71,5.71,0,0,0,4.24,1.66,6.87,6.87,0,0,0,3.5-.88,9.26,9.26,0,0,0,2.86-2.7h.66A11.15,11.15,0,0,1,15.87,142a8.51,8.51,0,0,1-4.55,1.17,8.64,8.64,0,0,1-4.16-1,6.64,6.64,0,0,1-2.76-2.77,8,8,0,0,1-1-3.84,12.27,12.27,0,0,1,1.68-6.11,12.31,12.31,0,0,1,4.63-4.68,11.75,11.75,0,0,1,5.92-1.7,8.84,8.84,0,0,1,3.15.67,3.59,3.59,0,0,0,1.1.28,1.22,1.22,0,0,0,.59-.14,4.25,4.25,0,0,0,.85-.81Z" transform="translate(0.02)"/><path class="cls-7" d="M24.63,123.48h8.11l-.15.52a5.75,5.75,0,0,0-1.78.24,2,2,0,0,0-.9.73,6.8,6.8,0,0,0-.79,1.94l-2,6.8c-.35,1.2-.55,2-.62,2.37a9.57,9.57,0,0,0-.17,1.69,3.81,3.81,0,0,0,1.27,2.9,4.87,4.87,0,0,0,3.42,1.18,5.74,5.74,0,0,0,2.5-.53,5.49,5.49,0,0,0,1.89-1.49,9.55,9.55,0,0,0,1.44-2.59c.43-1.09.82-2.19,1.15-3.31l1.7-5.86a13.87,13.87,0,0,0,.63-2.86,1,1,0,0,0-.43-.8,3.47,3.47,0,0,0-1.75-.41l.16-.52h6.1l-.15.52a4.2,4.2,0,0,0-1.56.21,1.91,1.91,0,0,0-.82.74,8.34,8.34,0,0,0-.8,2.06L39,134.13a28.2,28.2,0,0,1-1.89,5.12A7.66,7.66,0,0,1,34.55,142a7.51,7.51,0,0,1-4.2,1.11,6.6,6.6,0,0,1-4.66-1.63,5,5,0,0,1-1.77-3.75,11.41,11.41,0,0,1,.16-1.78c.07-.42.26-1.14.55-2.16l1.9-6.52a9,9,0,0,0,.4-2.09,1,1,0,0,0-.41-.81,4.75,4.75,0,0,0-2-.38Z" transform="translate(0.02)"/><path class="cls-7" d="M46,123.48H60.61L59,128.58H58.5a8.64,8.64,0,0,0,.27-2,1.89,1.89,0,0,0-.64-1.56,4.71,4.71,0,0,0-2.47-.39H54.14l-3.79,13.22a16.53,16.53,0,0,0-.73,3.08,1,1,0,0,0,.46.88,2.72,2.72,0,0,0,1.6.35h.65l-.17.52H43.8l.16-.52h.37a3.33,3.33,0,0,0,1.7-.36,2.12,2.12,0,0,0,.74-.87,18,18,0,0,0,.93-2.67l4-13.63H50.53a7.11,7.11,0,0,0-2.67.42,4,4,0,0,0-1.63,1.24,6.28,6.28,0,0,0-1,2.29h-.53Z" transform="translate(0.02)"/><path class="cls-7" d="M67.3,124.51l-2.2,7.59h1.8a5.13,5.13,0,0,0,2.79-.58,4.58,4.58,0,0,0,1.49-2.18h.52l-2,7h-.56a5.49,5.49,0,0,0,.25-1.5,1.7,1.7,0,0,0-.25-1,1.47,1.47,0,0,0-.68-.54,5.75,5.75,0,0,0-1.82-.18H64.85L63,139.47a5.43,5.43,0,0,0-.27,1.4.81.81,0,0,0,.36.65,2.24,2.24,0,0,0,1.2.2H66a8.69,8.69,0,0,0,4.42-1,8.39,8.39,0,0,0,3-3.4h.53l-1.81,5.34H57.26l.18-.52a4.69,4.69,0,0,0,1.49-.2,1.84,1.84,0,0,0,.82-.65,10.18,10.18,0,0,0,.9-2.44L64,127.29a8.36,8.36,0,0,0,.4-2.14,1,1,0,0,0-.37-.84,2.5,2.5,0,0,0-1.47-.31h-.3l.17-.52h13.8l-1.19,4.63h-.53a7,7,0,0,0,.1-1.09,2.07,2.07,0,0,0-.37-1.26,3,3,0,0,0-1.4-1,11.42,11.42,0,0,0-3.13-.26Z" transform="translate(0.02)"/><path class="cls-7" d="M14.79,172.68H.56l.2-.52A4.83,4.83,0,0,0,2.27,172a2,2,0,0,0,.88-.66A9.65,9.65,0,0,0,4.09,169l3.38-11.68a8.63,8.63,0,0,0,.42-2.13,1,1,0,0,0-.39-.83A2.49,2.49,0,0,0,6,154l-.38,0,.17-.52h7.83l-.12.52a4.79,4.79,0,0,0-1.86.26,2.19,2.19,0,0,0-.93.84,12.61,12.61,0,0,0-.83,2.37L6.59,169a8,8,0,0,0-.38,1.81.87.87,0,0,0,.38.65,1.85,1.85,0,0,0,1.09.21H9.54a8.28,8.28,0,0,0,3.21-.51A4.85,4.85,0,0,0,14.36,170a15.51,15.51,0,0,0,1.41-2.11l.37-.64h.52Z" transform="translate(0.02)"/><path class="cls-7" d="M24.77,172.16l-.15.52h-7.9l.19-.52a5.09,5.09,0,0,0,1.58-.2,1.92,1.92,0,0,0,.92-.67,8.64,8.64,0,0,0,1-2.37l3.34-11.59a8.72,8.72,0,0,0,.43-2.18,1.06,1.06,0,0,0-.19-.62,1.13,1.13,0,0,0-.56-.39,5.07,5.07,0,0,0-1.46-.14l.17-.52h7.42l-.16.52a3.27,3.27,0,0,0-1.34.2,2.11,2.11,0,0,0-1,.81,10.47,10.47,0,0,0-.86,2.32l-3.33,11.59a10.34,10.34,0,0,0-.45,2,1,1,0,0,0,.18.6,1.09,1.09,0,0,0,.56.38A8,8,0,0,0,24.77,172.16Z" transform="translate(0.02)"/><path class="cls-7" d="M31.53,153.48H46.11l-1.57,5.1H44a8.64,8.64,0,0,0,.27-2,1.91,1.91,0,0,0-.63-1.56,4.78,4.78,0,0,0-2.48-.39H39.64l-3.79,13.22a17.47,17.47,0,0,0-.73,3.08,1.07,1.07,0,0,0,.46.88,2.72,2.72,0,0,0,1.6.35h.65l-.17.52H29.31l.15-.52h.37a3.33,3.33,0,0,0,1.7-.36,2.12,2.12,0,0,0,.74-.87,18,18,0,0,0,.93-2.67l4-13.63H36a7.11,7.11,0,0,0-2.67.42,4,4,0,0,0-1.63,1.24,6.28,6.28,0,0,0-1,2.29h-.53Z" transform="translate(0.02)"/><path class="cls-7" d="M47.66,153.48H62.24l-1.57,5.1h-.54a8.64,8.64,0,0,0,.27-2,1.89,1.89,0,0,0-.64-1.56,4.73,4.73,0,0,0-2.48-.39H55.77L52,167.85a17,17,0,0,0-.72,3.08,1,1,0,0,0,.46.88,2.72,2.72,0,0,0,1.6.35H54l-.17.52H45.43l.16-.52H46a3.33,3.33,0,0,0,1.7-.36,2.12,2.12,0,0,0,.74-.87,18,18,0,0,0,.93-2.67l4-13.63H52.16a7,7,0,0,0-2.67.42,4,4,0,0,0-1.64,1.24,6.63,6.63,0,0,0-1,2.29h-.52Z" transform="translate(0.02)"/><path class="cls-7" d="M72.83,172.68H58.6l.2-.52a4.91,4.91,0,0,0,1.52-.19,2,2,0,0,0,.87-.66,8.89,8.89,0,0,0,.94-2.35l3.38-11.68a8.3,8.3,0,0,0,.43-2.13,1,1,0,0,0-.39-.83,2.55,2.55,0,0,0-1.47-.3l-.38,0,.17-.52H71.7l-.11.52a4.85,4.85,0,0,0-1.87.26,2.11,2.11,0,0,0-.92.84,12.32,12.32,0,0,0-.84,2.37L64.63,169a8,8,0,0,0-.38,1.81.87.87,0,0,0,.38.65,1.85,1.85,0,0,0,1.09.21h1.86a8.28,8.28,0,0,0,3.21-.51A4.89,4.89,0,0,0,72.41,170a16.91,16.91,0,0,0,1.4-2.11l.37-.64h.52Z" transform="translate(0.02)"/><path class="cls-7" d="M85.05,154.51l-2.19,7.59h1.8a5.13,5.13,0,0,0,2.79-.58,4.57,4.57,0,0,0,1.48-2.18h.53l-2,7h-.57a5.55,5.55,0,0,0,.26-1.5,1.7,1.7,0,0,0-.25-1,1.47,1.47,0,0,0-.68-.54,5.75,5.75,0,0,0-1.82-.18H82.6l-1.85,6.36a5.43,5.43,0,0,0-.27,1.4.83.83,0,0,0,.35.65,2.29,2.29,0,0,0,1.21.2h1.7a8.69,8.69,0,0,0,4.42-1,8.39,8.39,0,0,0,3-3.4h.53l-1.82,5.34H75l.19-.52a4.69,4.69,0,0,0,1.49-.2,1.9,1.9,0,0,0,.82-.65,10.65,10.65,0,0,0,.9-2.44l3.37-11.58a8.36,8.36,0,0,0,.4-2.14,1,1,0,0,0-.38-.84,2.48,2.48,0,0,0-1.46-.31H80l.17-.52H94l-1.19,4.63h-.52a7,7,0,0,0,.1-1.09,2.07,2.07,0,0,0-.37-1.26,3,3,0,0,0-1.4-1,11.42,11.42,0,0,0-3.13-.26Z" transform="translate(0.02)"/><path class="cls-7" d="M5.74,184l.17-.52H12a14.19,14.19,0,0,1,5.77.89,6.93,6.93,0,0,1,3,2.81,8.1,8.1,0,0,1,1.12,4.12,10.7,10.7,0,0,1-.65,3.66,10.55,10.55,0,0,1-1.46,2.84,12.88,12.88,0,0,1-2.5,2.36,11.71,11.71,0,0,1-3.65,1.91,16.71,16.71,0,0,1-4.91.61H.63l.18-.52a4.79,4.79,0,0,0,1.51-.2,1.85,1.85,0,0,0,.83-.65,9.39,9.39,0,0,0,.92-2.39l3.4-11.62a8.5,8.5,0,0,0,.4-2.15,1,1,0,0,0-.37-.85,2.46,2.46,0,0,0-1.45-.3Zm5,.54L6.61,198.92a10.21,10.21,0,0,0-.47,2,.75.75,0,0,0,.15.44.67.67,0,0,0,.4.28,3.81,3.81,0,0,0,1.19.13A17.42,17.42,0,0,0,12,201.3a8.47,8.47,0,0,0,3.12-1.36,9.18,9.18,0,0,0,2.76-3.63,12.71,12.71,0,0,0,1-5.25,6.82,6.82,0,0,0-1.59-4.95,6.2,6.2,0,0,0-4.63-1.62C12.21,184.49,11.56,184.51,10.77,184.54Z" transform="translate(0.02)"/><path class="cls-7" d="M31.83,184.51l-2.2,7.59h1.8a5.13,5.13,0,0,0,2.79-.58,4.57,4.57,0,0,0,1.48-2.18h.53l-2,7h-.57a5.55,5.55,0,0,0,.26-1.5,1.7,1.7,0,0,0-.25-1,1.47,1.47,0,0,0-.68-.54,5.75,5.75,0,0,0-1.82-.18H29.38l-1.86,6.36a5.43,5.43,0,0,0-.27,1.4.83.83,0,0,0,.35.65,2.31,2.31,0,0,0,1.21.2h1.7a8.69,8.69,0,0,0,4.42-1,8.39,8.39,0,0,0,3-3.4h.53l-1.81,5.34H21.79l.18-.52a4.69,4.69,0,0,0,1.49-.2,1.9,1.9,0,0,0,.82-.65,10.65,10.65,0,0,0,.9-2.44l3.37-11.58a8.36,8.36,0,0,0,.4-2.14,1,1,0,0,0-.37-.84,2.5,2.5,0,0,0-1.47-.31h-.3l.17-.52H40.77l-1.18,4.63h-.53a7,7,0,0,0,.1-1.09,2.07,2.07,0,0,0-.37-1.26,3,3,0,0,0-1.4-1,11.42,11.42,0,0,0-3.13-.26Z" transform="translate(0.02)"/><path class="cls-7" d="M40.35,203.12,41.94,196h.48c-.07.69-.1,1.26-.1,1.71a4.21,4.21,0,0,0,1.24,3.16,4.41,4.41,0,0,0,3.23,1.22A3.48,3.48,0,0,0,49.61,201a4,4,0,0,0,1-2.63,3.45,3.45,0,0,0-.44-1.75,25.59,25.59,0,0,0-3.55-4.14,12.87,12.87,0,0,1-1.8-2.11,4.84,4.84,0,0,1-.65-2.41,4.59,4.59,0,0,1,1.5-3.44A5.38,5.38,0,0,1,49.48,183a6.57,6.57,0,0,1,1.5.16,9.11,9.11,0,0,1,1.6.56l.91.36a2,2,0,0,0,.44,0,1.21,1.21,0,0,0,.71-.21,2.91,2.91,0,0,0,.69-.91h.54l-1.47,6.38h-.48c0-.57,0-1,0-1.38a3.72,3.72,0,0,0-1.13-2.8,4.12,4.12,0,0,0-3-1.09,3.32,3.32,0,0,0-2.39.86,2.68,2.68,0,0,0-.92,2,3.34,3.34,0,0,0,.59,1.89,21.31,21.31,0,0,0,2.7,2.93A15.57,15.57,0,0,1,52.57,195a4.94,4.94,0,0,1,.62,2.43,5.6,5.6,0,0,1-.77,2.82,5.2,5.2,0,0,1-2.21,2.12,6.79,6.79,0,0,1-3.16.75,8,8,0,0,1-1.59-.15,19.34,19.34,0,0,1-2.35-.77,2.69,2.69,0,0,0-.92-.21c-.56,0-1,.38-1.3,1.13Z" transform="translate(0.02)"/><path class="cls-7" d="M61.8,202.16l-.15.52h-7.9l.19-.52a5.09,5.09,0,0,0,1.58-.2,1.92,1.92,0,0,0,.92-.67,8.64,8.64,0,0,0,1-2.37l3.34-11.59a8.72,8.72,0,0,0,.43-2.18,1.06,1.06,0,0,0-.19-.62,1.13,1.13,0,0,0-.56-.39A5.07,5.07,0,0,0,59,184l.17-.52h7.42l-.16.52a3.27,3.27,0,0,0-1.34.2,2.11,2.11,0,0,0-1,.81,10.47,10.47,0,0,0-.86,2.32l-3.33,11.59a10.34,10.34,0,0,0-.45,2,1.08,1.08,0,0,0,.17.6,1.17,1.17,0,0,0,.57.38A8,8,0,0,0,61.8,202.16Z" transform="translate(0.02)"/><path class="cls-7" d="M85.18,183l-1.43,6.05h-.54a13.55,13.55,0,0,0,.13-1.57,3.2,3.2,0,0,0-1.22-2.46A5,5,0,0,0,78.74,184a8.36,8.36,0,0,0-7.19,4.14,12.67,12.67,0,0,0-2.23,7.32,7.83,7.83,0,0,0,1.38,4.64,4.81,4.81,0,0,0,4.23,2,7.17,7.17,0,0,0,1.34-.13,18.69,18.69,0,0,0,1.9-.57l1.4-4.94a6.11,6.11,0,0,0,.3-1.63.9.9,0,0,0-.37-.78,3.49,3.49,0,0,0-1.92-.41h-.4l.16-.55h8l-.14.55a3.93,3.93,0,0,0-1.58.26,2,2,0,0,0-.85.82,12.23,12.23,0,0,0-.78,2.22l-1.42,4.86a19.91,19.91,0,0,1-3.13,1.11,11.29,11.29,0,0,1-2.51.28A9.42,9.42,0,0,1,70,202a7.08,7.08,0,0,1-2.78-3,8.55,8.55,0,0,1-.9-3.73,11.08,11.08,0,0,1,1.05-4.74A13.14,13.14,0,0,1,70,186.72a12.64,12.64,0,0,1,3.41-2.45A12,12,0,0,1,78.71,183a9.77,9.77,0,0,1,3.71.68,3,3,0,0,0,1,.27,1.08,1.08,0,0,0,.6-.16,2.81,2.81,0,0,0,.64-.79Z" transform="translate(0.02)"/><path class="cls-7" d="M93.56,183.48l5.94,15.05,3.21-11.24a8.21,8.21,0,0,0,.4-2.15,1,1,0,0,0-.37-.82,2.27,2.27,0,0,0-1.37-.3l-.36,0,.16-.52h6.17l-.17.52a3.71,3.71,0,0,0-1.43.2,2.4,2.4,0,0,0-1,.77,8.61,8.61,0,0,0-.92,2.32l-4.52,15.83H98.8l-6.38-16.2-3.42,12a8.55,8.55,0,0,0-.38,2.08,1,1,0,0,0,.35.81,3.47,3.47,0,0,0,1.65.38l-.14.52h-6l.2-.52a4.82,4.82,0,0,0,1.52-.2,2,2,0,0,0,.86-.67,9.44,9.44,0,0,0,.92-2.4l3.81-13.36a3.23,3.23,0,0,0-1.18-1.16,4.81,4.81,0,0,0-2-.37l.15-.52Z" transform="translate(0.02)"/><path class="cls-7" d="M114,184.51l-2.19,7.59h1.8a5.13,5.13,0,0,0,2.79-.58,4.57,4.57,0,0,0,1.48-2.18h.53l-2,7h-.57a5.55,5.55,0,0,0,.26-1.5,1.78,1.78,0,0,0-.25-1,1.52,1.52,0,0,0-.68-.54,5.79,5.79,0,0,0-1.82-.18h-1.83l-1.85,6.36a5.43,5.43,0,0,0-.27,1.4.83.83,0,0,0,.35.65,2.26,2.26,0,0,0,1.21.2h1.7a8.69,8.69,0,0,0,4.42-1,8.47,8.47,0,0,0,3-3.4h.53l-1.82,5.34H103.94l.19-.52a4.61,4.61,0,0,0,1.48-.2,1.88,1.88,0,0,0,.83-.65,10.65,10.65,0,0,0,.9-2.44l3.37-11.58a8.36,8.36,0,0,0,.4-2.14,1,1,0,0,0-.38-.84,2.48,2.48,0,0,0-1.46-.31H109l.17-.52h13.79l-1.19,4.63h-.52a8.43,8.43,0,0,0,.1-1.09,2.13,2.13,0,0,0-.37-1.26,3,3,0,0,0-1.4-1,11.47,11.47,0,0,0-3.13-.26Z" transform="translate(0.02)"/><path class="cls-7" d="M134.36,202.68l-3.07-9.33a10.53,10.53,0,0,1-2.21-.21l-1.66,5.8a7.14,7.14,0,0,0-.33,1.92,1.14,1.14,0,0,0,.42.93,3.82,3.82,0,0,0,1.69.37l-.12.52h-7.44l.16-.52a4.39,4.39,0,0,0,1.41-.21,1.76,1.76,0,0,0,.85-.66,8.64,8.64,0,0,0,1-2.35l3.36-11.59a6.87,6.87,0,0,0,.34-1.8,1.43,1.43,0,0,0-.53-1.11,2.3,2.3,0,0,0-1.52-.44l.17-.52h6.25c2.1,0,3.61.4,4.53,1.19A3.91,3.91,0,0,1,139,187.8a4.86,4.86,0,0,1-1.42,3.39,6.55,6.55,0,0,1-3.9,1.95l1.87,5.62a6.56,6.56,0,0,0,1.36,2.69,3.46,3.46,0,0,0,2.19.71l-.15.52Zm-5-10.35a11,11,0,0,0,1.61.13,5.33,5.33,0,0,0,3.85-1.35,4.46,4.46,0,0,0,1.42-3.37,3.14,3.14,0,0,0-.89-2.4,3.71,3.71,0,0,0-2.65-.84,6.79,6.79,0,0,0-1.08.11Z" transform="translate(0.02)"/><path class="cls-7" d="M143.49,191.47l-2.14-1.66c.68-.76,1.39-1.5,2.13-2.19l.55-.54c-.24,0-.91-.2-2-.47a16,16,0,0,1-1.59-.44l.84-2.49a21.28,21.28,0,0,1,3.31,1.66,26.52,26.52,0,0,1-.34-3.77h2.52a34.2,34.2,0,0,1-.38,3.79c.19-.07.59-.25,1.21-.55.85-.38,1.64-.72,2.36-1l.75,2.56c-1.05.24-2.27.47-3.64.7l1.7,1.91c.34.39.6.7.8.95l-2.16,1.43-1.92-3.16C144.9,189.23,144.24,190.32,143.49,191.47Z" transform="translate(0.02)"/><path class="cls-8" d="M21.91,241.32a61.93,61.93,0,0,1,9.42-3.68q5.93-2,11.82-3.95a21.34,21.34,0,0,1-2.25-5.1l-2.69-7.94L26.5,224.43l-5,1.6c-.84.27-4.86,1.82-4.86,1.82s.16.91.28,1.28c.25.8.54,1.58.83,2.37.57,1.57,1.17,3.14,1.81,4.69s1.33,3.08,2.06,4.59Z" transform="translate(0.02)"/><path class="cls-8" d="M19.89,235.19a6,6,0,0,0,1.16-.71" transform="translate(0.02)"/><path class="cls-8" d="M21.93,234.14a1.21,1.21,0,0,0,.52-.19l.82-.46" transform="translate(0.02)"/><path class="cls-8" d="M24.63,233.11a3.08,3.08,0,0,0,1.18-.57" transform="translate(0.02)"/><path class="cls-8" d="M27.1,232.11a1.51,1.51,0,0,0,.49-.21l.69-.4" transform="translate(0.02)"/><path class="cls-8" d="M29.59,231.07c.49,0,.85-.48,1.32-.61" transform="translate(0.02)"/><path class="cls-8" d="M32.27,230l1.3-.61" transform="translate(0.02)"/><path class="cls-8" d="M34.92,229a2.3,2.3,0,0,0,.81-.2l.9-.35" transform="translate(0.02)"/><path class="cls-8" d="M37.72,227.84a1.41,1.41,0,0,0,.81-.25l.57-.32" transform="translate(0.02)"/><path class="cls-8" d="M28.35,229.07a3.52,3.52,0,0,0,.32,2,7.55,7.55,0,0,0,1.19,1.72" transform="translate(0.02)"/><path class="cls-8" d="M28.62,232.27a4.94,4.94,0,0,0,1.27.55,6.44,6.44,0,0,0,.22-1.24" transform="translate(0.02)"/><path class="cls-8" d="M123.4,226q-2.69,8.9-5.71,17.68A113.63,113.63,0,0,1,131.06,248a19.65,19.65,0,0,1,.78-3.7,113.45,113.45,0,0,1,5.89-17.4l-10-3.69c-.58-.22-1.16-.43-1.73-.67l-1-.43c-.12-.05-.27-.16-.38-.06s-.12.37-.16.49l-.66,2.22Z" transform="translate(0.02)"/><path class="cls-8" d="M131,225.07a2.33,2.33,0,0,1-.4,1.4" transform="translate(0.02)"/><path class="cls-8" d="M130.19,227.25c-.17.53-.36,1.07-.56,1.59" transform="translate(0.02)"/><path class="cls-8" d="M129.25,229.62a3.42,3.42,0,0,1-.41,1.56" transform="translate(0.02)"/><path class="cls-8" d="M128.17,232.38a3.81,3.81,0,0,1-.47,1.5" transform="translate(0.02)"/><path class="cls-8" d="M127.25,234.81a6,6,0,0,1-.62,1.89" transform="translate(0.02)"/><path class="cls-8" d="M126.09,238a3.63,3.63,0,0,1-.18,1.46" transform="translate(0.02)"/><path class="cls-8" d="M125.46,240.66a3,3,0,0,1-.48,1.55" transform="translate(0.02)"/><path class="cls-8" d="M124.61,243.21a10.11,10.11,0,0,1-.4,1.71" transform="translate(0.02)"/><path class="cls-8" d="M119.69,239.25a1.59,1.59,0,0,1,1.3.4" transform="translate(0.02)"/><path class="cls-8" d="M121.78,239.83a2.78,2.78,0,0,1,1.15.44" transform="translate(0.02)"/><path class="cls-8" d="M123.79,240.67a1.24,1.24,0,0,1,.66.13" transform="translate(0.02)"/><path class="cls-8" d="M126,241.45a1.84,1.84,0,0,1,1.06.37" transform="translate(0.02)"/><path class="cls-8" d="M128.24,242.17c.45.13.88.28,1.32.44" transform="translate(0.02)"/><path class="cls-8" d="M130.49,243a1.6,1.6,0,0,1,1,.34" transform="translate(0.02)"/><path class="cls-8" d="M121.61,233.59a3.86,3.86,0,0,0,1.36.64" transform="translate(0.02)"/><path class="cls-8" d="M123.83,234.39a1.74,1.74,0,0,1,1.35.62" transform="translate(0.02)"/><path class="cls-8" d="M127.92,236a11.75,11.75,0,0,0,1.28.64" transform="translate(0.02)"/><path class="cls-8" d="M130.14,236.8a2.46,2.46,0,0,1,1.41.6" transform="translate(0.02)"/><path class="cls-8" d="M132.35,237.78a2.06,2.06,0,0,1,.77.38" transform="translate(0.02)"/><path class="cls-8" d="M123.28,228a2.92,2.92,0,0,1,1.37.47" transform="translate(0.02)"/><path class="cls-8" d="M125.52,228.73a9.31,9.31,0,0,1,1.54.7" transform="translate(0.02)"/><path class="cls-8" d="M127.77,229.55a1.38,1.38,0,0,1,.67.08" transform="translate(0.02)"/><path class="cls-8" d="M129.86,230.22a3.05,3.05,0,0,1,.91.39" transform="translate(0.02)"/><path class="cls-8" d="M131.79,231a6.21,6.21,0,0,1,1.19.57" transform="translate(0.02)"/><path class="cls-8" d="M133.88,231.85a1.19,1.19,0,0,1,.89.24" transform="translate(0.02)"/><path class="cls-8" d="M51.65,238.82l5.71.69,3.1.38,2.15.26q6.67.82,13.32,2a56,56,0,0,1,3.4-9.78c-1.3-.17-8.84-1.19-8.85-1.12s-10.47-1-12-1.25a19.26,19.26,0,0,0-3.69-.4,3.07,3.07,0,0,0-.36.73c-.13.38-.25.76-.37,1.13l-.74,2.27-1.48,4.54Z" transform="translate(0.02)"/><path class="cls-8" d="M65.74,231.15a12.43,12.43,0,0,0,0,1.83" transform="translate(0.02)"/><path class="cls-8" d="M65.5,233.63a12.25,12.25,0,0,0-.09,1.71" transform="translate(0.02)"/><path class="cls-8" d="M65.17,236.74a6.59,6.59,0,0,0,0,1.6" transform="translate(0.02)"/><path class="cls-8" d="M65,239l-.1,1.12" transform="translate(0.02)"/><path class="cls-8" d="M68.41,235.85a6.49,6.49,0,0,1-2.36.2,13.11,13.11,0,0,1-3.45-1" transform="translate(0.02)"/><path class="cls-8" d="M63.43,236.26a2,2,0,0,1-1-1.25c.59.15,1.16-.26,1.76-.29" transform="translate(0.02)"/><path class="cls-8" d="M76.17,241.12l2.64.11a76.05,76.05,0,0,1,.59-8.92" transform="translate(0.02)"/><path class="cls-8" d="M83.62,240.68l4.38.53,2.38.29,1.65.2q5.13.65,10.23,1.53a43.07,43.07,0,0,1,2.61-7.51c-1-.14-6.79-.92-6.79-.86s-8-.76-9.22-1a15.18,15.18,0,0,0-2.83-.31,2.56,2.56,0,0,0-.29.56c-.1.29-.18.58-.28.87l-.57,1.74-1.13,3.49Z" transform="translate(0.02)"/><path class="cls-8" d="M94.44,234.79a9.36,9.36,0,0,0,0,1.4" transform="translate(0.02)"/><path class="cls-8" d="M94.25,236.69a9.73,9.73,0,0,0-.07,1.32" transform="translate(0.02)"/><path class="cls-8" d="M94,239.08a5.62,5.62,0,0,0,0,1.23" transform="translate(0.02)"/><path class="cls-8" d="M93.89,240.79l-.08.87" transform="translate(0.02)"/><path class="cls-8" d="M96.48,238.4a5,5,0,0,1-1.81.15,9.93,9.93,0,0,1-2.65-.77" transform="translate(0.02)"/><path class="cls-8" d="M92.66,238.71a1.52,1.52,0,0,1-.73-1c.45.11.89-.2,1.35-.23" transform="translate(0.02)"/><path class="cls-8" d="M102.45,242.45l2,.08a58.06,58.06,0,0,1,.44-6.85" transform="translate(0.02)"/><path class="cls-8" d="M81.76,228.33c.65-.94,3-.15,3.36,1.28" transform="translate(0.02)"/><path class="cls-8" d="M85.31,228.68a2.69,2.69,0,0,0-.12,1c-.33-.17-.74,0-1.11,0" transform="translate(0.02)"/><path class="cls-8" d="M84.68,231.23c-.66,1-3,.15-3.37-1.27" transform="translate(0.02)"/><path class="cls-8" d="M81.12,230.88a2.59,2.59,0,0,0,.13-1c.33.17.74,0,1.1,0" transform="translate(0.02)"/><path class="cls-8" d="M33.67,264.85c.29.88.58,1.76.85,2.65,1.41,4.62,2.32,9.47,4.76,13.64q6.64-2.2,13.18-4.71a17.48,17.48,0,0,1-1.61-4.18c-.78-2.69-1.56-5.39-2.42-8.05-1-3.08-2.12-6.11-3.32-9.12a.34.34,0,0,0-.13-.18.36.36,0,0,0-.25,0l-3.82,1a24.93,24.93,0,0,0-2.67.82c-1,.39-2,.92-3,1.26a28.4,28.4,0,0,0-3,.91c-.26.12-.62.38-.77.45s.76,1.33.9,1.73c.29.8.56,1.6.84,2.4C33.36,264,33.52,264.4,33.67,264.85Z" transform="translate(0.02)"/><path class="cls-8" d="M38.43,257.6A5.9,5.9,0,0,0,39,259" transform="translate(0.02)"/><path class="cls-8" d="M39.52,260a1,1,0,0,0,.22.73l.53.82" transform="translate(0.02)"/><path class="cls-8" d="M44.92,276.12a3,3,0,0,0,.46,1.7" transform="translate(0.02)"/><path class="cls-8" d="M38.15,276.16a3.21,3.21,0,0,0,1-.23" transform="translate(0.02)"/><path class="cls-8" d="M40,275.42a3.22,3.22,0,0,0,1.37-.34" transform="translate(0.02)"/><path class="cls-8" d="M42.37,274.77a7.18,7.18,0,0,0,1.29-.33" transform="translate(0.02)"/><path class="cls-8" d="M45.19,273.64a1.84,1.84,0,0,0,.66-.08" transform="translate(0.02)"/><path class="cls-8" d="M46.52,273.18l1.14-.29" transform="translate(0.02)"/><path class="cls-8" d="M48.59,272.43a3.25,3.25,0,0,0,1.29-.37" transform="translate(0.02)"/><path class="cls-8" d="M36.56,270.91a2.69,2.69,0,0,0,.81-.32" transform="translate(0.02)"/><path class="cls-8" d="M37.89,270.3c.57,0,1-.55,1.6-.58" transform="translate(0.02)"/><path class="cls-8" d="M40.41,269.54l1.22-.58" transform="translate(0.02)"/><path class="cls-8" d="M44.3,267.72a3.61,3.61,0,0,0,1.4-.42" transform="translate(0.02)"/><path class="cls-8" d="M46.63,266.78a3.91,3.91,0,0,0,1.3-.26" transform="translate(0.02)"/><path class="cls-8" d="M34.81,264.89a1.4,1.4,0,0,0,.87-.2" transform="translate(0.02)"/><path class="cls-8" d="M36.52,264.32a4,4,0,0,0,1.51-.39" transform="translate(0.02)"/><path class="cls-8" d="M38.74,263.46a3.46,3.46,0,0,0,1-.36" transform="translate(0.02)"/><path class="cls-8" d="M41.3,262.48a1.26,1.26,0,0,0,.85-.14" transform="translate(0.02)"/><path class="cls-8" d="M42.74,262a2.85,2.85,0,0,0,1.07-.3" transform="translate(0.02)"/><path class="cls-8" d="M44.89,261.25c.55-.1,1-.44,1.59-.51" transform="translate(0.02)"/><path class="cls-8" d="M40.27,261.48l-.72-1.36" transform="translate(0.02)"/><path class="cls-8" d="M38.49,257.75a5,5,0,0,0,.64,1.28" transform="translate(0.02)"/><path class="cls-8" d="M41.06,265.48c.33,1.07.66,2.14,1,3.21a24,24,0,0,0,2.35,5.62,16.72,16.72,0,0,0-1.06-5.68,11.25,11.25,0,0,0-.4-1.2c-.21-.43-.19-.78-.4-1.21-.42-.83-.61-1.65-1-2.49-.12-.23-.27-.75-.63-.59s-.26.55-.21.85A10.84,10.84,0,0,0,41.06,265.48Z" transform="translate(0.02)"/><path class="cls-8" d="M156,229.83c-.16.68-.22,1.38-.32,2.06-.15,1.09-.38,2.16-.62,3.22-.32,1.49-.92,4.37-.85,4.37l16.22.06a9.26,9.26,0,0,1,.69-3c.67-2,1.21-4,1.76-6l1.39-5.09a2.64,2.64,0,0,1-.51,0l-.52.05-1,.07-2.08.11c-1.38.06-2.77.09-4.16.14s-2.79.09-4.18.17-2.77.2-4.14.37c-.2,0-.64,0-.71.22s-.11.63-.2.93c-.17.63-.41,1.24-.6,1.87Z" transform="translate(0.02)"/><path class="cls-8" d="M163.42,226.66a12,12,0,0,0,.86.89,5.59,5.59,0,0,0-1.19.87,5.38,5.38,0,0,0,1.06,1.22l-1.32,1a9,9,0,0,0,1,.84l-.54.77" transform="translate(0.02)"/><path class="cls-8" d="M162.42,238.58V237.5" transform="translate(0.02)"/><path class="cls-8" d="M162.53,236.71V235.4" transform="translate(0.02)"/><path class="cls-8" d="M162.68,234.5a3.09,3.09,0,0,1,.1-1.17" transform="translate(0.02)"/><path class="cls-8" d="M155.93,232.88h1.23" transform="translate(0.02)"/><path class="cls-8" d="M158.36,232.88h1.8" transform="translate(0.02)"/><path class="cls-8" d="M161.25,232.66h1.54" transform="translate(0.02)"/><path class="cls-8" d="M164.14,232.66a11.82,11.82,0,0,1,1.46,0" transform="translate(0.02)"/><path class="cls-8" d="M166.92,232.7h1.76" transform="translate(0.02)"/><path class="cls-8" d="M170.1,232.73h1.13" transform="translate(0.02)"/><path class="cls-8" d="M162.22,225a9.46,9.46,0,0,1,.8-2.35c.15-.31.29-.63.45-.93a2.24,2.24,0,0,0,.13-.27,1.21,1.21,0,0,0,0-.19.83.83,0,0,1,.07-.54c.11-.17.19-.36.29-.53a7.53,7.53,0,0,1,.73-1,3.2,3.2,0,0,1,.83,1,1.12,1.12,0,0,1-.12,1.22,1.23,1.23,0,0,1-.57.31,1,1,0,0,1-.38,0,.84.84,0,0,1-.52-.36c-.11-.16-.17-.33-.26-.49a.85.85,0,0,1-.12-.38q0-.66-.12-1.32a4.93,4.93,0,0,0-.09-.64,1,1,0,0,0-.9.45,1.77,1.77,0,0,0-.29,1,1.54,1.54,0,0,0,.35,1.12,1.14,1.14,0,0,0,1,.33,3.2,3.2,0,0,0,.3,1l.69,2.54" transform="translate(0.02)"/><path class="cls-8" d="M154.94,271.59c0,1.63,0,3.27.21,4.89-2.73-.18-5.46.22-8.19,0a10.59,10.59,0,0,0-4.24.13c-.22-5-.3-10.1-.22-15.15.5.08,7.33.15,8.48.13h1.72c.56,0,1.13,0,1.69,0a.44.44,0,0,1,.38.18,1.6,1.6,0,0,1,0,.69l0,1.73,0,3.46,0,3.47Z" transform="translate(0.02)"/><path class="cls-8" d="M142.49,261.45c2.32-1.5,4.71-2.89,7.1-4.28a13.05,13.05,0,0,1,1.62-.84,3.35,3.35,0,0,1,.58.91" transform="translate(0.02)"/><path class="cls-8" d="M152.34,257.94l0-.81a3.13,3.13,0,0,0-1.24.55c-.95.55-2,.85-3,1.32-.34.16-.66.34-1,.49s-.67.24-1,.37c-1.18.45-2.23,1.23-3.45,1.59" transform="translate(0.02)"/><path class="cls-8" d="M153.12,259.41l-.05-.92q-4,1.11-7.89,2.53a7.41,7.41,0,0,1-2.22.52c1.76-.79,3.72-1.11,5.42-2,.34-.18.67-.39,1-.56,1-.52,2.26-.68,3.29-1.25a8.81,8.81,0,0,0,0,.89" transform="translate(0.02)"/><path class="cls-8" d="M153.6,260.19l0-.93-.59.15c-.87.23-1.74.46-2.62.67a9.43,9.43,0,0,1-1.06.2c-.32,0-.64.05-.95.1-.7.13-1.35.46-2.05.64-.39.09-.8.14-1.2.21a8,8,0,0,0-1.27.35" transform="translate(0.02)"/><path class="cls-8" d="M154,260.73l0-.65-2.61.55a9.23,9.23,0,0,1-1.28.21c-.25,0-.51,0-.77.06a6.62,6.62,0,0,0-1.15.27,14.26,14.26,0,0,1-3.05.48" transform="translate(0.02)"/><path class="cls-8" d="M154.25,261.3v-.69a9.51,9.51,0,0,1-1.77.21c-.35.06-.69.19-1,.26a6.12,6.12,0,0,1-1,.08,30.23,30.23,0,0,0-3.42.47" transform="translate(0.02)"/><path class="cls-8" d="M154.82,261.81c0-.21,0-.42,0-.64a29.34,29.34,0,0,0-3.14.5" transform="translate(0.02)"/><path class="cls-8" d="M84.14,273.79s.14,0,.19,0l.92,0c.61,0,1.23,0,1.84,0,.91,0,1.81-.09,2.71-.2a3.77,3.77,0,0,1,1.06,0,3.2,3.2,0,0,1,.74.24l3.27,1.34a.92.92,0,0,0,.42.1,1.12,1.12,0,0,0,.35-.12,19.25,19.25,0,0,1,11.48-1.91c-.09-3.73,0-7.46.17-11.18l-5.06.06a2,2,0,0,0-1,.09l-.16.08a.14.14,0,0,1-.14,0l-.31-.14-.6-.28-1.2-.6a13.79,13.79,0,0,1-2.64-1.76.82.82,0,0,0-.43-.25.83.83,0,0,0-.4.11c-.77.35-1.53.73-2.28,1.13-.49.27-1,.55-1.47.84l-.72.45-.36.23c-.06,0-.12.09-.19.12s-.06,0-.12,0-.31.06-.46.08a13,13,0,0,1-1.65.05l-3.13,0c-.19,0-.82-.16-.85.12s0,.3,0,.46v10.72A.81.81,0,0,0,84.14,273.79Z" transform="translate(0.02)"/><path class="cls-8" d="M90.23,262.8v1" transform="translate(0.02)"/><path class="cls-8" d="M90.32,265v1.07" transform="translate(0.02)"/><path class="cls-8" d="M90.45,267.09v1.34" transform="translate(0.02)"/><path class="cls-8" d="M90.63,269.81v1.39" transform="translate(0.02)"/><path class="cls-8" d="M90.63,272.27v1" transform="translate(0.02)"/><path class="cls-8" d="M95.59,265v.85" transform="translate(0.02)"/><path class="cls-8" d="M95.59,267.09v1.38" transform="translate(0.02)"/><path class="cls-8" d="M95.68,269.41v1.3" transform="translate(0.02)"/><path class="cls-8" d="M95.63,271.42v1.07" transform="translate(0.02)"/><path class="cls-8" d="M95.63,273.39v1" transform="translate(0.02)"/><path class="cls-8" d="M101.17,263.91a9.61,9.61,0,0,0,0-1.2" transform="translate(0.02)"/><path class="cls-8" d="M101.13,264.5v1.42" transform="translate(0.02)"/><path class="cls-8" d="M101,267.18v1.56" transform="translate(0.02)"/><path class="cls-8" d="M101,269.54v1.34" transform="translate(0.02)"/><path class="cls-8" d="M100.73,272v1.21" transform="translate(0.02)"/><path class="cls-8" d="M84.89,259.16c1.72-.13,3.44.3,5.16.12" transform="translate(0.02)"/><path class="cls-8" d="M89.19,258.55a8.09,8.09,0,0,1,1,.68,2.43,2.43,0,0,0-1.3.9" transform="translate(0.02)"/><path class="cls-8" d="M106.39,259.4l-5.52-.06" transform="translate(0.02)"/><path class="cls-8" d="M102.14,258.68a6.44,6.44,0,0,0-1.38.65,4.38,4.38,0,0,1,1.36.78" transform="translate(0.02)"/><path class="cls-8" d="M84,273a8.4,8.4,0,0,1-1.94-.19,14.1,14.1,0,0,1,.32-1.91c.56-2.87.49-5.91,1.72-8.56" transform="translate(0.02)"/><path class="cls-8" d="M90.4,262.24a6.35,6.35,0,0,1,1.19.53L95,264.55a1.25,1.25,0,0,0,.49.17,1.07,1.07,0,0,0,.52-.17,18.62,18.62,0,0,1,5-2.16" transform="translate(0.02)"/><text class="cls-9" transform="translate(8.45 282.85) rotate(-90)">fold yours like this:</text><polygon points="174.52 213.55 168.52 213.56 168.52 213.49 174.52 213.5 174.52 213.55"/><polygon points="162.52 213.58 156.52 213.59 156.52 213.46 162.52 213.47 162.52 213.58"/><polygon points="150.52 213.6 144.52 213.62 144.52 213.43 150.52 213.44 150.52 213.6"/><polygon points="138.52 213.63 132.52 213.65 132.52 213.4 138.52 213.42 138.52 213.63"/><polygon points="126.52 213.66 120.52 213.67 120.52 213.38 126.52 213.39 126.52 213.66"/><polygon points="114.52 213.68 108.52 213.69 108.52 213.36 114.52 213.37 114.52 213.68"/><polygon points="102.52 213.7 96.52 213.71 96.52 213.34 102.52 213.35 102.52 213.7"/><polygon points="90.52 213.72 84.52 213.73 84.52 213.32 90.52 213.33 90.52 213.72"/><polygon points="78.52 213.74 72.52 213.74 72.52 213.31 78.52 213.31 78.52 213.74"/><polygon points="66.52 213.75 60.52 213.76 60.52 213.29 66.52 213.3 66.52 213.75"/><polygon points="54.52 213.76 48.52 213.77 48.52 213.28 54.52 213.28 54.52 213.76"/><polygon points="42.52 213.76 36.52 213.74 36.52 213.31 42.52 213.28 42.52 213.76"/><polygon points="30.52 213.72 24.52 213.69 24.52 213.36 30.52 213.33 30.52 213.72"/><polygon points="18.52 213.66 12.52 213.64 12.52 213.41 18.52 213.38 18.52 213.66"/><polygon points="6.52 213.59 1.52 213.55 1.52 213.5 6.52 213.46 6.52 213.59"/><circle cx="130.52" cy="272.52" r="2.5"/><circle cx="187.52" cy="272.52" r="2.5"/><circle cx="168.52" cy="272.52" r="2.5"/><circle cx="149.52" cy="272.52" r="2.5"/><rect x="126.93" y="138.31" width="7.14" height="5" transform="translate(-10.29 271.31) rotate(-90)"/><rect x="145.93" y="47.31" width="7.14" height="5" transform="translate(99.71 199.31) rotate(-90)"/><rect x="183.93" y="52.31" width="7.14" height="5" transform="translate(132.71 242.31) rotate(-90)"/><rect x="164.93" y="69.31" width="7.14" height="5" transform="translate(96.71 240.31) rotate(-90)"/><text class="cls-10" transform="translate(41.13 222.38)">1</text><text class="cls-10" transform="translate(107.13 234.38)">2</text><text class="cls-10" transform="translate(140.13 226.38)">3</text><text class="cls-10" transform="translate(176.13 225.38)">4</text><text class="cls-10" transform="translate(47.13 254.38)">5</text><text class="cls-10" transform="translate(109.13 259.38)">6</text><text class="cls-10" transform="translate(155.13 257.38)">7</text></g></g></svg>