<svg xmlns="http://www.w3.org/2000/svg" viewBox="0 0 72.06 295.05"><defs><style>.cls-1{font-size:12px;fill:none;stroke:#000;stroke-miterlimit:10;stroke-width:0.25px;font-family:Arial-BoldMT, Arial;font-weight:700;}.cls-2{letter-spacing:6.3em;}.cls-3{letter-spacing:5.42em;}.cls-4{letter-spacing:9.62em;}.cls-5{letter-spacing:8.73em;}.cls-6{letter-spacing:9.42em;}</style></defs><g id="Layer_2" data-name="Layer 2"><g id="Layer_1-2" data-name="Layer 1"><text class="cls-1" transform="translate(10.42 294.92) rotate(-90)">p.1<tspan class="cls-2" x="17.34" y="0"> </tspan><tspan class="cls-3" x="96.23" y="0"> </tspan><tspan x="164.58" y="0">About</tspan><tspan class="cls-2" x="199.24" y="0"> </tspan><tspan x="278.13" y="0">Me</tspan><tspan x="0" y="19">p.3</tspan><tspan class="cls-4" x="17.34" y="19" xml:space="preserve">  </tspan><tspan x="254.79" y="19">Design</tspan><tspan x="0" y="38">p.5</tspan><tspan class="cls-5" x="17.34" y="38" xml:space="preserve">  </tspan><tspan x="233.47" y="38">Publishing</tspan><tspan x="0" y="57">p.7</tspan><tspan class="cls-6" x="17.34" y="57" xml:space="preserve">  </tspan><tspan x="250.13" y="57">Contact</tspan></text><circle cx="5.83" cy="272.52" r="2.5"/><circle cx="62.83" cy="272.52" r="2.5"/><circle cx="43.83" cy="272.52" r="2.5"/><circle cx="24.83" cy="272.52" r="2.5"/><rect x="3.33" y="138.31" width="5" height="5" transform="translate(-134.98 146.64) rotate(-90)"/><rect x="22.33" y="47.31" width="5" height="5" transform="translate(-24.98 74.64) rotate(-90)"/><rect x="60.33" y="52.31" width="5" height="5" transform="translate(8.02 117.64) rotate(-90)"/><rect x="41.33" y="69.31" width="5" height="5" transform="translate(-27.98 115.64) rotate(-90)"/></g></g></svg>