<svg xmlns="http://www.w3.org/2000/svg" viewBox="0 0 177.36 65.45"><defs><style>.cls-1{fill:none;stroke:#000;stroke-miterlimit:10;stroke-width:0.5px;}.cls-2{font-size:7.78px;font-family:ArialMT, Arial;}.cls-3{font-size:6px;font-family:TimesNewRomanPSMT, Times New Roman;}</style></defs><g id="Layer_2" data-name="Layer 2"><g id="Layer_1-2" data-name="Layer 1"><path class="cls-1" d="M20.16,23.93a62.09,62.09,0,0,1,9.43-3.69q5.91-1.95,11.82-3.95a21.17,21.17,0,0,1-2.25-5.1l-2.7-7.93L24.76,7l-5,1.6c-.84.27-4.86,1.81-4.86,1.81s.17.92.29,1.29c.25.79.54,1.58.82,2.36.57,1.58,1.17,3.15,1.82,4.69s1.32,3.08,2.06,4.59C20,23.56,20.08,23.75,20.16,23.93Z"/><path class="cls-1" d="M18.14,17.8a7.76,7.76,0,0,0,1.17-.71"/><path class="cls-1" d="M20.19,16.75a1.23,1.23,0,0,0,.52-.2l.82-.46"/><path class="cls-1" d="M22.89,15.72a3.31,3.31,0,0,0,1.18-.57"/><path class="cls-1" d="M25.36,14.72a1.94,1.94,0,0,0,.49-.22l.68-.4"/><path class="cls-1" d="M27.85,13.68c.49,0,.85-.49,1.32-.62"/><path class="cls-1" d="M30.52,12.63l1.31-.6"/><path class="cls-1" d="M33.18,11.55a1.89,1.89,0,0,0,.8-.2l.9-.35"/><path class="cls-1" d="M36,10.45a1.4,1.4,0,0,0,.8-.25l.57-.33"/><path class="cls-1" d="M26.61,11.67a3.51,3.51,0,0,0,.32,2,7.26,7.26,0,0,0,1.18,1.73"/><path class="cls-1" d="M26.88,14.88a5.24,5.24,0,0,0,1.26.55,5.76,5.76,0,0,0,.22-1.24"/><path class="cls-1" d="M121.66,8.61q-2.7,8.9-5.72,17.69a113.63,113.63,0,0,1,13.37,4.28,20.6,20.6,0,0,1,.79-3.71A113.7,113.7,0,0,1,136,9.48l-10-3.7c-.59-.21-1.17-.43-1.74-.67-.34-.14-.67-.29-1-.42-.12-.05-.27-.16-.38-.06s-.13.37-.16.49c-.22.74-.45,1.48-.67,2.22C121.91,7.76,121.79,8.19,121.66,8.61Z"/><path class="cls-1" d="M129.23,7.67a2.3,2.3,0,0,1-.4,1.4"/><path class="cls-1" d="M128.45,9.85c-.18.54-.36,1.07-.56,1.6"/><path class="cls-1" d="M127.5,12.22a3.26,3.26,0,0,1-.4,1.56"/><path class="cls-1" d="M126.43,15a4.16,4.16,0,0,1-.47,1.51"/><path class="cls-1" d="M125.51,17.42a6.28,6.28,0,0,1-.63,1.89"/><path class="cls-1" d="M124.35,20.56a3.56,3.56,0,0,1-.18,1.45"/><path class="cls-1" d="M123.72,23.26a3.14,3.14,0,0,1-.48,1.55"/><path class="cls-1" d="M122.87,25.81a11.29,11.29,0,0,1-.4,1.72"/><path class="cls-1" d="M118,21.86a1.5,1.5,0,0,1,1.29.4"/><path class="cls-1" d="M120,22.43a2.84,2.84,0,0,1,1.15.44"/><path class="cls-1" d="M122.05,23.27a1.18,1.18,0,0,1,.66.14"/><path class="cls-1" d="M124.29,24.06a1.81,1.81,0,0,1,1.07.36"/><path class="cls-1" d="M126.5,24.77c.44.14.88.29,1.31.45"/><path class="cls-1" d="M128.75,25.65a1.63,1.63,0,0,1,1,.34"/><path class="cls-1" d="M119.87,16.19a3.74,3.74,0,0,0,1.35.64"/><path class="cls-1" d="M122.09,17a1.73,1.73,0,0,1,1.35.62"/><path class="cls-1" d="M126.17,18.64a10.91,10.91,0,0,0,1.28.64"/><path class="cls-1" d="M128.39,19.4a2.55,2.55,0,0,1,1.42.6"/><path class="cls-1" d="M130.6,20.39a2,2,0,0,1,.77.38"/><path class="cls-1" d="M121.54,10.56a3,3,0,0,1,1.36.47"/><path class="cls-1" d="M123.78,11.33a9.75,9.75,0,0,1,1.54.71"/><path class="cls-1" d="M126,12.16a1.28,1.28,0,0,1,.67.08"/><path class="cls-1" d="M128.12,12.83a2.82,2.82,0,0,1,.91.39"/><path class="cls-1" d="M130.05,13.62a6.88,6.88,0,0,1,1.19.58"/><path class="cls-1" d="M132.14,14.46a1.15,1.15,0,0,1,.89.24"/><path class="cls-1" d="M49.91,21.43l5.71.69,3.1.37,2.14.26q6.69.84,13.32,2A55.83,55.83,0,0,1,77.59,15c-1.3-.17-8.84-1.19-8.85-1.12s-10.48-1-12-1.24a20.2,20.2,0,0,0-3.69-.41,3,3,0,0,0-.37.74c-.13.37-.24.75-.36,1.13l-.75,2.27-1.48,4.54Z"/><path class="cls-1" d="M64,13.76a12.26,12.26,0,0,0,0,1.82"/><path class="cls-1" d="M63.76,16.24a10.7,10.7,0,0,0-.09,1.7"/><path class="cls-1" d="M63.42,19.35a7,7,0,0,0,0,1.59"/><path class="cls-1" d="M63.28,21.57l-.1,1.13"/><path class="cls-1" d="M66.66,18.46a6.47,6.47,0,0,1-2.36.19,12.85,12.85,0,0,1-3.45-1"/><path class="cls-1" d="M61.68,18.86a2,2,0,0,1-.94-1.24c.58.14,1.16-.26,1.76-.29"/><path class="cls-1" d="M74.43,23.73l2.64.11a75.9,75.9,0,0,1,.58-8.92"/><path class="cls-1" d="M81.87,23.29l4.39.53,2.38.28,1.64.2q5.14.64,10.24,1.54a42.63,42.63,0,0,1,2.61-7.52c-1-.13-6.79-.91-6.79-.86s-8-.75-9.22-1a14.45,14.45,0,0,0-2.84-.3,2.39,2.39,0,0,0-.28.56c-.1.29-.19.58-.28.87l-.57,1.74L82,22.86Z"/><path class="cls-1" d="M92.69,17.4a10.86,10.86,0,0,0,0,1.4"/><path class="cls-1" d="M92.51,19.3a8.22,8.22,0,0,0-.07,1.31"/><path class="cls-1" d="M92.25,21.69a5.62,5.62,0,0,0,0,1.23"/><path class="cls-1" d="M92.14,23.4l-.08.86"/><path class="cls-1" d="M94.74,21a5,5,0,0,1-1.81.15,10.31,10.31,0,0,1-2.65-.77"/><path class="cls-1" d="M90.91,21.32a1.56,1.56,0,0,1-.72-1c.45.11.89-.2,1.35-.22"/><path class="cls-1" d="M100.7,25.06l2,.08a60.29,60.29,0,0,1,.45-6.85"/><path class="cls-1" d="M80,10.94c.65-.95,3-.15,3.36,1.28"/><path class="cls-1" d="M83.57,11.29a2.59,2.59,0,0,0-.13,1c-.33-.17-.73,0-1.1,0"/><path class="cls-1" d="M82.93,13.84c-.65.94-3,.15-3.36-1.28"/><path class="cls-1" d="M79.38,13.49a2.69,2.69,0,0,0,.12-1c.33.17.74,0,1.11,0"/><path class="cls-1" d="M31.92,47.46c.3.88.59,1.76.86,2.64,1.4,4.62,2.32,9.47,4.75,13.64q6.64-2.2,13.19-4.7a17.39,17.39,0,0,1-1.61-4.18c-.78-2.7-1.56-5.39-2.43-8.06q-1.5-4.61-3.31-9.11c0-.07-.06-.15-.13-.18a.28.28,0,0,0-.25,0l-3.83,1a24.08,24.08,0,0,0-2.66.82c-1,.4-2,.93-3,1.26a30.93,30.93,0,0,0-3,.91c-.27.12-.63.39-.77.45s.76,1.33.9,1.73c.28.8.56,1.61.83,2.41C31.62,46.55,31.77,47,31.92,47.46Z"/><path class="cls-1" d="M36.68,40.21a7.12,7.12,0,0,0,.6,1.39"/><path class="cls-1" d="M37.78,42.65a.89.89,0,0,0,.22.72l.52.83"/><path class="cls-1" d="M43.18,58.72a3.06,3.06,0,0,0,.45,1.7"/><path class="cls-1" d="M36.4,58.77a3.61,3.61,0,0,0,1-.23"/><path class="cls-1" d="M38.22,58a3.29,3.29,0,0,0,1.37-.33"/><path class="cls-1" d="M40.63,57.38a9.38,9.38,0,0,0,1.29-.33"/><path class="cls-1" d="M43.44,56.24a1.89,1.89,0,0,0,.67-.07"/><path class="cls-1" d="M44.78,55.78l1.14-.29"/><path class="cls-1" d="M46.85,55a3,3,0,0,0,1.28-.38"/><path class="cls-1" d="M34.81,53.51a2.57,2.57,0,0,0,.81-.31"/><path class="cls-1" d="M36.14,52.91c.58,0,1-.56,1.6-.58"/><path class="cls-1" d="M38.67,52.14l1.21-.57"/><path class="cls-1" d="M42.55,50.32A3.49,3.49,0,0,0,44,49.9"/><path class="cls-1" d="M44.89,49.38a3.79,3.79,0,0,0,1.29-.25"/><path class="cls-1" d="M33.07,47.5a1.5,1.5,0,0,0,.86-.2"/><path class="cls-1" d="M34.77,46.92a3.8,3.8,0,0,0,1.52-.39"/><path class="cls-1" d="M37,46.07a3.42,3.42,0,0,0,1-.37"/><path class="cls-1" d="M39.55,45.08a1.28,1.28,0,0,0,.86-.13"/><path class="cls-1" d="M41,44.58a2.92,2.92,0,0,0,1.07-.31"/><path class="cls-1" d="M43.14,43.86c.55-.1,1-.44,1.6-.52"/><path class="cls-1" d="M38.53,44.08l-.73-1.35"/><path class="cls-1" d="M36.75,40.36a5.25,5.25,0,0,0,.63,1.28"/><path class="cls-1" d="M39.31,48.08c.33,1.08.67,2.15,1,3.22a23.3,23.3,0,0,0,2.35,5.61,16.58,16.58,0,0,0-1.07-5.68,10.55,10.55,0,0,0-.4-1.2c-.21-.42-.19-.78-.4-1.2-.42-.84-.61-1.65-1-2.49-.11-.24-.27-.75-.62-.6s-.27.56-.22.86A12.85,12.85,0,0,0,39.31,48.08Z"/><path class="cls-1" d="M154.25,12.44a18,18,0,0,0-.32,2.06c-.15,1.08-.39,2.15-.62,3.22-.33,1.49-.92,4.36-.85,4.36l16.21.07a9.27,9.27,0,0,1,.7-3c.66-2,1.21-4,1.76-6L172.51,8a2.49,2.49,0,0,1-.5.05l-.52,0-1.05.08-2.08.1c-1.39.06-2.78.1-4.16.14s-2.79.1-4.19.18-2.76.19-4.14.36c-.2,0-.64,0-.71.23s-.11.62-.19.93c-.18.63-.42,1.23-.6,1.86A3.9,3.9,0,0,0,154.25,12.44Z"/><path class="cls-1" d="M161.68,9.26a10.48,10.48,0,0,0,.86.9,5.31,5.31,0,0,0-1.19.86,5,5,0,0,0,1.06,1.23l-1.32,1a9,9,0,0,0,1,.85l-.54.77"/><path class="cls-1" d="M160.67,21.19V20.1"/><path class="cls-1" d="M160.78,19.31V18"/><path class="cls-1" d="M160.94,17.1a3.22,3.22,0,0,1,.09-1.16"/><path class="cls-1" d="M154.18,15.49h1.24"/><path class="cls-1" d="M156.62,15.49h1.8"/><path class="cls-1" d="M159.51,15.26h1.54"/><path class="cls-1" d="M162.4,15.27a11.88,11.88,0,0,1,1.46,0"/><path class="cls-1" d="M165.17,15.3h1.76"/><path class="cls-1" d="M168.36,15.34h1.12"/><path class="cls-1" d="M160.48,7.61a9.19,9.19,0,0,1,.8-2.35c.15-.31.28-.63.44-.94a.84.84,0,0,0,.13-.27.55.55,0,0,0,0-.18.8.8,0,0,1,.07-.55c.11-.17.19-.35.29-.53a7.29,7.29,0,0,1,.73-1,3.44,3.44,0,0,1,.83,1A1.14,1.14,0,0,1,163.67,4a1.13,1.13,0,0,1-.57.3.86.86,0,0,1-.39,0,.82.82,0,0,1-.52-.36,4.52,4.52,0,0,1-.25-.49.71.71,0,0,1-.12-.37c0-.44-.07-.88-.13-1.32a3.65,3.65,0,0,0-.09-.64,1,1,0,0,0-.9.45,1.84,1.84,0,0,0-.28,1,1.58,1.58,0,0,0,.34,1.12,1.2,1.2,0,0,0,1,.33A3.42,3.42,0,0,0,162,5l.69,2.54"/><path class="cls-1" d="M153.19,54.19c0,1.64,0,3.27.21,4.9-2.72-.18-5.46.22-8.18,0a10.77,10.77,0,0,0-4.24.14q-.34-7.58-.22-15.15c.5.07,7.32.14,8.47.12.58,0,1.15,0,1.73,0s1.13,0,1.68,0a.43.43,0,0,1,.38.17,1.61,1.61,0,0,1,.06.69l0,1.74,0,3.46.05,3.47Z"/><path class="cls-1" d="M140.75,44.05c2.32-1.5,4.7-2.89,7.09-4.27a13.1,13.1,0,0,1,1.62-.84,2.88,2.88,0,0,1,.58.91"/><path class="cls-1" d="M150.6,40.54l0-.8a3.18,3.18,0,0,0-1.25.55c-.94.55-2,.84-3,1.32-.33.16-.65.34-1,.48s-.67.25-1,.37c-1.19.46-2.24,1.24-3.46,1.6"/><path class="cls-1" d="M151.38,42l0-.91q-4,1.11-7.89,2.53a8.15,8.15,0,0,1-2.22.52c1.76-.8,3.72-1.11,5.42-2,.34-.19.66-.4,1-.57,1.06-.51,2.27-.67,3.3-1.24a6.47,6.47,0,0,0,0,.88"/><path class="cls-1" d="M151.86,42.79l0-.93-.58.16c-.87.23-1.74.46-2.62.66-.35.08-.71.16-1.07.21s-.63,0-.94.1c-.71.12-1.36.46-2.05.63-.39.1-.8.14-1.2.21a7.41,7.41,0,0,0-1.28.36"/><path class="cls-1" d="M152.3,43.34l0-.65-2.61.55a9.48,9.48,0,0,1-1.28.21c-.26,0-.52,0-.77,0a9.14,9.14,0,0,0-1.15.27,13.76,13.76,0,0,1-3.05.49"/><path class="cls-1" d="M152.51,43.91v-.7a9.42,9.42,0,0,1-1.77.22c-.35.06-.68.19-1,.26a7.77,7.77,0,0,1-1,.08,26.43,26.43,0,0,0-3.43.47"/><path class="cls-1" d="M153.07,44.41a4.42,4.42,0,0,0,0-.63,27.37,27.37,0,0,0-3.14.5"/><path class="cls-1" d="M82.4,56.39s.13,0,.18,0l.93,0c.61,0,1.23,0,1.84,0,.9,0,1.81-.1,2.7-.21a3.78,3.78,0,0,1,1.06,0,3.89,3.89,0,0,1,.75.25l3.27,1.34a1,1,0,0,0,.42.1.89.89,0,0,0,.34-.13,19.27,19.27,0,0,1,11.49-1.9q-.15-5.6.17-11.19l-5.07.06a2.15,2.15,0,0,0-1,.1l-.15.08c-.07,0-.08,0-.15,0l-.3-.14-.61-.29q-.6-.28-1.2-.6a14,14,0,0,1-2.63-1.76.84.84,0,0,0-.43-.24.76.76,0,0,0-.41.1c-.77.36-1.53.74-2.27,1.14q-.75.41-1.47.84l-.73.44-.36.23a.71.71,0,0,1-.18.12.43.43,0,0,1-.12,0,3.81,3.81,0,0,0-.47.07,12.85,12.85,0,0,1-1.64.06l-3.14,0c-.18,0-.81-.15-.84.12s0,.31,0,.46V56.18S82.37,56.34,82.4,56.39Z"/><path class="cls-1" d="M88.48,45.4v1"/><path class="cls-1" d="M88.57,47.64v1.07"/><path class="cls-1" d="M88.71,49.69V51"/><path class="cls-1" d="M88.89,52.42V53.8"/><path class="cls-1" d="M88.89,54.88v1"/><path class="cls-1" d="M93.84,47.64v.85"/><path class="cls-1" d="M93.84,49.69v1.39"/><path class="cls-1" d="M93.93,52v1.29"/><path class="cls-1" d="M93.89,54V55.1"/><path class="cls-1" d="M93.89,56v1"/><path class="cls-1" d="M99.43,46.52a8.15,8.15,0,0,0,0-1.21"/><path class="cls-1" d="M99.39,47.1v1.43"/><path class="cls-1" d="M99.3,49.78v1.57"/><path class="cls-1" d="M99.25,52.15v1.34"/><path class="cls-1" d="M99,54.61v1.2"/><path class="cls-1" d="M83.14,41.76c1.72-.12,3.45.31,5.16.13"/><path class="cls-1" d="M87.45,41.16a7.66,7.66,0,0,1,1,.67,2.47,2.47,0,0,0-1.31.91"/><path class="cls-1" d="M104.65,42,99.12,42"/><path class="cls-1" d="M100.4,41.28a5.84,5.84,0,0,0-1.38.66,4.3,4.3,0,0,1,1.36.78"/><path class="cls-1" d="M82.25,55.6a7.94,7.94,0,0,1-1.94-.19,17.52,17.52,0,0,1,.32-1.9c.56-2.87.49-5.92,1.72-8.57"/><path class="cls-1" d="M88.66,44.85a6.6,6.6,0,0,1,1.19.52l3.38,1.78a1.15,1.15,0,0,0,.5.17,1.09,1.09,0,0,0,.52-.16,18.31,18.31,0,0,1,5-2.16"/><text class="cls-2" transform="translate(6.68 65.45) rotate(-90)">fold yours like this:</text><text class="cls-3" transform="translate(39.36 4.99)">1</text><text class="cls-3" transform="translate(105.36 16.99)">2</text><text class="cls-3" transform="translate(138.36 8.99)">3</text><text class="cls-3" transform="translate(174.36 7.99)">4</text><text class="cls-3" transform="translate(45.36 36.99)">5</text><text class="cls-3" transform="translate(107.36 41.99)">6</text><text class="cls-3" transform="translate(153.36 39.99)">7</text></g></g></svg>