<svg id="Layer_1" data-name="Layer 1" xmlns="http://www.w3.org/2000/svg" viewBox="0 0 192 64"><defs><style>.cls-1{fill:#fff;}</style></defs><path class="cls-1" d="M54.8-223.48a31.24,31.24,0,0,0-22.86-9.38,30.27,30.27,0,0,0-22.46,9.32,32.17,32.17,0,0,0-7,10.48A31.55,31.55,0,0,0,0-200.86a31.34,31.34,0,0,0,2.4,12.17,31.88,31.88,0,0,0,7,10.38,32.12,32.12,0,0,0,10.4,7,31.14,31.14,0,0,0,12.14,2.43,32,32,0,0,0,12.29-2.45,33.12,33.12,0,0,0,10.63-7.09,29.46,29.46,0,0,0,6.82-10.14A32.54,32.54,0,0,0,64-200.86a32.6,32.6,0,0,0-2.34-12.31A30.73,30.73,0,0,0,54.8-223.48Zm-4.06,41A27.57,27.57,0,0,1,42-176.74a25.91,25.91,0,0,1-10,2,25.78,25.78,0,0,1-10-2,26.37,26.37,0,0,1-8.51-5.72,26.34,26.34,0,0,1-5.8-8.51,25.15,25.15,0,0,1-2-9.92,25.29,25.29,0,0,1,2-10,27.48,27.48,0,0,1,5.8-8.6,24.8,24.8,0,0,1,18.46-7.65,25.34,25.34,0,0,1,18.57,7.71,25.64,25.64,0,0,1,5.65,8.46,26.17,26.17,0,0,1,1.95,10.06A24.59,24.59,0,0,1,50.74-182.51Z" transform="translate(0 232.86)"/><path class="cls-1" d="M42.28-195.2a3.66,3.66,0,0,1-3.2-1.54A7,7,0,0,1,38-200.85c0-3.78,1.43-5.66,4.28-5.66a3.9,3.9,0,0,1,1.92.57,4.38,4.38,0,0,1,1.68,2l4.23-2.23q-2.51-4.64-8.45-4.63a9.06,9.06,0,0,0-6.72,2.69,9.88,9.88,0,0,0-2.66,7.26,9.92,9.92,0,0,0,2.61,7.31,9.32,9.32,0,0,0,6.94,2.63,9.25,9.25,0,0,0,4.85-1.34,9.81,9.81,0,0,0,3.54-3.69l-4-2A4,4,0,0,1,42.28-195.2Z" transform="translate(0 232.86)"/><path class="cls-1" d="M23.83-195.2a3.68,3.68,0,0,1-3.21-1.54,7,7,0,0,1-1.08-4.11c0-3.78,1.43-5.66,4.29-5.66a3.75,3.75,0,0,1,1.85.57,4.39,4.39,0,0,1,1.69,2l4.29-2.23q-2.58-4.64-8.52-4.63a9,9,0,0,0-6.71,2.69,9.88,9.88,0,0,0-2.66,7.26,9.89,9.89,0,0,0,2.63,7.31,9.36,9.36,0,0,0,6.91,2.63,9.42,9.42,0,0,0,4.92-1.34,9.51,9.51,0,0,0,3.48-3.69l-3.94-2A4,4,0,0,1,23.83-195.2Z" transform="translate(0 232.86)"/><path class="cls-1" d="M95.94-232.86a30.64,30.64,0,0,0-22.51,9.26A31.34,31.34,0,0,0,64-200.86a30.77,30.77,0,0,0,9.43,22.57,30.94,30.94,0,0,0,22.51,9.43,31.6,31.6,0,0,0,22.91-9.54q9.15-9,9.15-22.46a30.94,30.94,0,0,0-9.32-22.74A30.92,30.92,0,0,0,95.94-232.86Zm18.74,50.34a25.63,25.63,0,0,1-18.63,7.83,25.27,25.27,0,0,1-18.51-7.77,25.14,25.14,0,0,1-7.77-18.4,25.77,25.77,0,0,1,7.83-18.57,24.94,24.94,0,0,1,18.46-7.66,25.24,25.24,0,0,1,18.51,7.66,25.32,25.32,0,0,1,7.66,18.57A24.36,24.36,0,0,1,114.68-182.52Z" transform="translate(0 232.86)"/><path class="cls-1" d="M96-212.57q4.45,0,4.46-4.46T96-221.54q-4.45,0-4.46,4.51T96-212.57Z" transform="translate(0 232.86)"/><path class="cls-1" d="M102.57-210.86H89.43a2,2,0,0,0-1.46.6,2,2,0,0,0-.6,1.46v13.09H91v15.54H101v-15.55h3.66V-208.8a2,2,0,0,0-.63-1.46A2,2,0,0,0,102.57-210.86Z" transform="translate(0 232.86)"/><path class="cls-1" d="M182.7-223.58A31,31,0,0,0,160-232.86a30.48,30.48,0,0,0-22.51,9.28A31.3,31.3,0,0,0,128-200.86a30.76,30.76,0,0,0,9.45,22.56A30.72,30.72,0,0,0,160-168.86a31.57,31.57,0,0,0,22.9-9.52A30.36,30.36,0,0,0,192-200.86,30.87,30.87,0,0,0,182.7-223.58Zm-4,41A25.68,25.68,0,0,1,160-174.7a25.3,25.3,0,0,1-18.51-7.76,25.14,25.14,0,0,1-7.77-18.4,25.71,25.71,0,0,1,1.41-8.51l8.48,3.76H143v3.8h3c0,.54,0,1.07,0,1.61v.91h-3v3.8h3.48a15.24,15.24,0,0,0,3,7,16.13,16.13,0,0,0,13.07,6.1,18,18,0,0,0,8.36-2l-1.29-6a14.82,14.82,0,0,1-6.1,1.39,9,9,0,0,1-6.91-2.73,8.52,8.52,0,0,1-1.77-3.75h11.65l16.55,7.33A24.74,24.74,0,0,1,178.7-182.54Zm-10.85-19.27h.48v-3.81h-9.07l-3.69-1.63a7.44,7.44,0,0,1,1.14-1.85,8.16,8.16,0,0,1,6.58-2.89,16,16,0,0,1,6,1.28l1.5-6.1a20.25,20.25,0,0,0-8-1.61A16.24,16.24,0,0,0,150.33-213a16.46,16.46,0,0,0-1.8,2.6L138-215a29.91,29.91,0,0,1,3.6-4.4A24.84,24.84,0,0,1,160-227.1a25.06,25.06,0,0,1,18.5,7.68,25.09,25.09,0,0,1,7.69,18.56,27.77,27.77,0,0,1-.81,6.82Z" transform="translate(0 232.86)"/></svg>